<?xml version="1.0" encoding="utf-8"?>
<!-- Generator: Adobe Illustrator 24.2.1, SVG Export Plug-In . SVG Version: 6.00 Build 0)  -->
<svg version="1.1" id="Layer_1" xmlns="http://www.w3.org/2000/svg" xmlns:xlink="http://www.w3.org/1999/xlink" x="0px" y="0px"
	 viewBox="0 0 281.47 100.81" style="enable-background:new 0 0 281.47 100.81;" xml:space="preserve">
<style type="text/css">
	.st0{fill:#4B84CE;}
	.st1{fill-rule:evenodd;clip-rule:evenodd;fill:#80BC00;}
	.st2{fill:#0055B8;}
	.st3{fill:#1A74C7;}
</style>
<g>
	<path class="st0" d="M246.15,36.41v15.87l27.99,15.98c0,0,8.29-8.02,0.39-15.93L246.15,36.41z"/>
	<g>
		<path class="st1" d="M207.21,69.2c-0.14,0.04-0.36,0.11-0.58,0.19c-7.94,3.06-15.89,6.11-23.83,9.16
			c-0.45,0.17-0.81,0.39-0.83,0.94c-0.02,0.59,0.37,0.81,0.83,1c3,1.24,5.98,2.5,8.98,3.72c0.72,0.29,1.18,0.74,1.47,1.47
			c1.21,2.98,2.47,5.95,3.7,8.92c0.2,0.48,0.41,0.92,1.01,0.9c0.59-0.02,0.81-0.46,0.99-0.94c3.02-7.85,6.03-15.7,9.05-23.55
			c0.1-0.26,0.2-0.52,0.23-0.78C208.3,69.64,207.86,69.18,207.21,69.2z"/>
	</g>
	<polygon class="st2" points="246.15,69.22 246.15,85.05 270.49,70.87 256.96,63.18 	"/>
	<path class="st2" d="M225.69,5.32c0,0,0,50.26,0,56.72c0,6.45-3.83,11.12-10.3,11.12c-1.33,0-2.54-0.22-3.64-0.61l-5.73,15.26
		c2.75,0.99,5.87,1.55,9.37,1.55c20.73,0,26.5-18.08,26.5-25.65c0-6.42,0-58.38,0-58.38H225.69z"/>
	<path class="st3" d="M216.33,36.36c-21.11,0-27.44,18.05-27.44,25.85c0,2.79,0.51,5.92,1.56,9.03l14.98-5.71
		c-0.23-0.88-0.35-1.77-0.35-2.66c0-5.12,4.22-10.31,10.3-10.31c1.39,0,4.1,0,6.08,0V36.36C220.16,36.36,218.38,36.36,216.33,36.36z
		"/>
	<path class="st2" d="M86.71,75.71l-6.41,0.03l6.31-17.9h-9.63l2-5.58h25.36l-1.97,5.58h-9.34l-6.32,17.9V75.71z"/>
	<path class="st2" d="M147.56,75.74h-16.7c-1.17,0-2.14-0.28-2.9-0.83c-0.75-0.56-1.13-1.36-1.13-2.4c0-0.55,0.11-1.13,0.32-1.76
		l5.52-15.81c0.61-1.74,1.72-2.62,3.34-2.62h19.8l-1.94,5.52h-13.86c-1.3,0-2.09,0.45-2.38,1.32c0.06-0.21-1.1,3.09-3.49,9.91
		c-0.02,0.07-0.03,0.15-0.03,0.23c0,0.6,0.49,0.91,1.47,0.91h13.93L147.56,75.74z"/>
	<g>
		<polygon class="st2" points="164.59,52.26 158.39,52.26 150.08,75.74 156.04,75.74 		"/>
		<polygon class="st2" points="176.61,52.26 173.59,60.81 164.28,60.81 162.3,66.25 171.62,66.25 168.24,75.74 174.65,75.74 
			183,52.26 		"/>
	</g>
	<path class="st2" d="M126.29,52.32h-17.24c-1.67,0-2.72,0.6-3.15,1.82l-5.38,15.58c-0.43,1.25-0.65,2.18-0.65,2.79
		c0,2.16,1.73,3.23,5.17,3.23h16.14l2.01-5.53h-14.89c-0.79,0-1.18-0.31-1.18-0.92c0-0.25,0.07-0.57,0.21-0.95l0.5-1.51h18.51
		l3.05-8.62c0.4-1.13,0.59-2.08,0.59-2.85C129.99,53.34,128.75,52.32,126.29,52.32z M122.56,59.36l-0.65,1.95h-12.08l0.79-2.44
		c0.14-0.43,0.41-0.72,0.82-0.87c0.3-0.1,0.79-0.15,1.5-0.15h8.22c0.96,0,1.44,0.38,1.44,1.14
		C122.61,59.12,122.6,59.24,122.56,59.36z"/>
	<path class="st2" d="M29.83,50.61c-7.68,0-17.17-0.21-17.17-0.21L3.52,75.97c0,0,10.05,0.03,14,0.03
		c14.34,0,18.95-11.6,18.95-19.15C36.47,50.51,32.26,50.61,29.83,50.61z M19.81,69.93c-1.97,0-6.97-0.01-6.97-0.01l4.56-13.46
		c0,0,4.72,0.11,8.55,0.11c1.2,0,3.31-0.06,3.31,3.28C29.26,63.84,26.96,69.93,19.81,69.93z"/>
	<path class="st2" d="M59.71,50.61c-7.68,0-17.17-0.21-17.17-0.21l-9.14,25.56c0,0,10.05,0.03,14,0.03
		c14.34,0,18.95-11.6,18.95-19.15C66.35,50.51,62.14,50.61,59.71,50.61z M49.7,69.93c-1.97,0-6.98-0.01-6.98-0.01l4.56-13.46
		c0,0,4.72,0.11,8.55,0.11c1.21,0,3.32-0.06,3.32,3.28C59.15,63.84,56.85,69.93,49.7,69.93z"/>
</g>
</svg>
