<?xml version="1.0" encoding="utf-8"?>
<!-- Generator: Adobe Illustrator 24.2.1, SVG Export Plug-In . SVG Version: 6.00 Build 0)  -->
<svg version="1.1" id="Layer_1" xmlns="http://www.w3.org/2000/svg" xmlns:xlink="http://www.w3.org/1999/xlink" x="0px" y="0px"
	 viewBox="0 0 30 30" style="enable-background:new 0 0 30 30;" xml:space="preserve">
<style type="text/css">
	.st0{fill:#0055B8;}
</style>
<g>
	<circle class="st0" cx="10.28" cy="25.61" r="2.36"/>
	<circle class="st0" cx="25.14" cy="25.61" r="2.36"/>
	<path class="st0" d="M29.19,6.03c-0.28-0.41-0.69-0.68-1.16-0.77c-0.13-0.03-0.25-0.04-0.36-0.04H7.68L7.31,3.1
		C7.21,2.48,6.67,2.03,6.04,2.03H1.79c-0.71,0-1.29,0.58-1.29,1.29s0.58,1.29,1.29,1.29h3.16l3,16.98c0.11,0.62,0.64,1.07,1.28,1.07
		h16.98c0.71,0,1.29-0.58,1.29-1.29s-0.58-1.29-1.29-1.29H10.3l-0.29-1.66h15.76c0.87,0,1.62-0.62,1.79-1.47l1.91-9.55
		C29.56,6.91,29.46,6.42,29.19,6.03z M26.74,7.8l-1.6,8.03H9.55L8.14,7.8H26.74z"/>
</g>
</svg>
