<?xml version="1.0" encoding="utf-8"?>
<!-- Generator: Adobe Illustrator 24.2.1, SVG Export Plug-In . SVG Version: 6.00 Build 0)  -->
<svg version="1.1" id="Capa_1" xmlns="http://www.w3.org/2000/svg" xmlns:xlink="http://www.w3.org/1999/xlink" x="0px" y="0px"
	 viewBox="0 0 196.93 196.93" style="enable-background:new 0 0 196.93 196.93;" xml:space="preserve">
<style type="text/css">
	.st0{fill:#FFFFFF;}
</style>
<g>
	<g>
		<g>
			<path class="st0" d="M191.31,71.72l-21.04-54.71c-3.99-10.34-15.6-15.49-25.95-11.51c-0.15,0.06-0.3,0.12-0.45,0.18L38.72,49.27
				c-10.01,4.11-14.93,15.44-11.1,25.56l2.89,7.72h-6.63c-10.82,0.01-19.59,8.78-19.6,19.6v70.56c0.01,10.82,8.78,19.59,19.6,19.6
				h133.28c10.82-0.01,19.59-8.78,19.6-19.6v-70.56c-0.01-1.06-0.1-2.13-0.28-3.17l3.64-1.47
				C190.21,93.36,195.18,81.93,191.31,71.72z M23.88,88.82h133.28c7.04,0.02,12.84,5.52,13.25,12.54H10.63
				C11.03,94.34,16.84,88.84,23.88,88.82z M55.4,69.93l20.96-10.48l4.31,10.78L59.71,80.71L55.4,69.93z M170.48,172.71
				c-0.01,7.36-5.97,13.32-13.33,13.33H23.88c-7.36-0.01-13.32-5.97-13.33-13.33v-39.98h159.93V172.71z M170.48,126.45H10.55v-18.82
				h159.93V126.45z M177.76,91.71l-3.28,1.33c-3.38-6.44-10.06-10.47-17.33-10.48H70.04l16.01-8.01c1.46-0.73,2.12-2.46,1.51-3.97
				l-6.65-16.62c-0.64-1.61-2.47-2.39-4.08-1.75c-0.08,0.03-0.16,0.07-0.24,0.11l-26.59,13.3c-1.46,0.73-2.11,2.46-1.51,3.97
				l5.19,12.96H37.2l-3.71-9.9c-2.63-6.95,0.75-14.74,7.63-17.56L146.27,11.5c7.03-2.91,15.09,0.42,18.01,7.45
				c0.05,0.11,0.09,0.22,0.13,0.33l21.04,54.71C188.11,81,184.7,88.86,177.76,91.71z"/>
			<path class="st0" d="M117.08,177.22c5.84,3.4,13.06,3.4,18.9,0c8.99,5.22,20.5,2.17,25.72-6.82c5.22-8.99,2.17-20.5-6.82-25.72
				c-2.88-1.68-6.16-2.55-9.5-2.55c-3.31,0-6.55,0.88-9.41,2.55c-8.99-5.22-20.5-2.17-25.72,6.82
				C105.05,160.48,108.1,172,117.08,177.22z M141.23,149.17c1.33-0.49,2.74-0.75,4.16-0.77c6.93,0,12.54,5.62,12.54,12.54
				s-5.62,12.54-12.54,12.54c-1.42-0.01-2.83-0.27-4.16-0.77C146.78,165.86,146.78,156.04,141.23,149.17z M135.99,152.74
				c4.18,4.67,4.18,11.74,0,16.42C131.81,164.48,131.81,157.41,135.99,152.74z M126.58,148.41c1.42,0.01,2.83,0.27,4.16,0.77
				c-5.55,6.87-5.55,16.69,0,23.56c-1.33,0.49-2.74,0.75-4.16,0.77c-6.93,0-12.54-5.62-12.54-12.54
				C114.04,154.02,119.65,148.41,126.58,148.41z"/>
			
				<rect x="136.42" y="61.95" transform="matrix(0.9138 -0.4062 0.4062 0.9138 -13.2661 67.6741)" class="st0" width="32.74" height="6.27"/>
			
				<rect x="115.71" y="51.98" transform="matrix(0.908 -0.4191 0.4191 0.908 -10.2562 63.5373)" class="st0" width="47.59" height="6.27"/>
		</g>
	</g>
</g>
</svg>
