<?xml version="1.0" encoding="utf-8"?>
<!-- Generator: Adobe Illustrator 24.2.1, SVG Export Plug-In . SVG Version: 6.00 Build 0)  -->
<svg version="1.1" id="Capa_1" xmlns="http://www.w3.org/2000/svg" xmlns:xlink="http://www.w3.org/1999/xlink" x="0px" y="0px"
	 viewBox="0 0 196.93 196.93" style="enable-background:new 0 0 196.93 196.93;" xml:space="preserve">
<style type="text/css">
	.st0{fill:#FFFFFF;}
</style>
<g id="Home_delivery">
	<path class="st0" d="M185.64,79.74c1.48,0.82,3.34,0.28,4.15-1.2c0.25-0.45,0.38-0.96,0.38-1.47V58.73c0-1.11-0.61-2.14-1.58-2.67
		l-35.1-19.36V9.81c0-1.69-1.37-3.06-3.06-3.06h-15.29c-1.69,0-3.06,1.37-3.06,3.06v15.07L99.92,7.15c-0.92-0.51-2.04-0.51-2.96,0
		L8.34,56.07c-0.97,0.53-1.57,1.55-1.58,2.66v18.34c0,1.69,1.37,3.06,3.06,3.06c0.52,0,1.02-0.13,1.47-0.38l13.81-7.62v93.6H9.81
		c-1.69,0-3.06,1.37-3.06,3.06s1.37,3.06,3.06,3.06h39.74v9.17c0,5.07,4.11,9.17,9.17,9.17h79.48c5.07,0,9.17-4.11,9.17-9.17v-9.17
		h39.74c1.69,0,3.06-1.37,3.06-3.06s-1.37-3.06-3.06-3.06h-15.29V72.13L185.64,79.74z M138.21,12.87h9.17v20.45l-9.17-5.06V12.87z
		 M12.87,60.53L98.44,13.3l85.62,47.23v11.36L99.92,25.48c-0.92-0.51-2.04-0.51-2.96,0L12.87,71.89V60.53z M141.27,181.01
		c0,1.69-1.37,3.06-3.06,3.06H58.73c-1.69,0-3.06-1.37-3.06-3.06v-79.48c0-1.69,1.37-3.06,3.06-3.06h24.46v33.63
		c-0.01,1.69,1.36,3.06,3.04,3.07c0.47,0,0.94-0.11,1.37-0.32l10.97-5.44l10.75,5.43c1.51,0.76,3.35,0.16,4.11-1.35
		c0.22-0.43,0.33-0.91,0.33-1.39V98.47h24.46c1.69,0,3.06,1.37,3.06,3.06V181.01z M89.3,98.47h18.34v28.66l-7.68-3.88
		c-0.86-0.43-1.87-0.43-2.73,0l-7.93,3.92V98.47z M165.72,165.72h-18.34v-64.2c0-5.07-4.11-9.17-9.17-9.17H58.73
		c-5.07,0-9.17,4.11-9.17,9.17v64.2H31.21V68.75l67.23-37.1l67.28,37.11V165.72z"/>
	<path class="st0" d="M83.18,61.78c0,8.44,6.84,15.29,15.29,15.29s15.29-6.84,15.29-15.29S106.91,46.5,98.47,46.5
		C90.03,46.51,83.19,53.34,83.18,61.78z M98.47,52.61c5.07,0,9.17,4.11,9.17,9.17s-4.11,9.17-9.17,9.17c-5.07,0-9.17-4.11-9.17-9.17
		S93.4,52.61,98.47,52.61z"/>
</g>
</svg>
