<?xml version="1.0" encoding="utf-8"?>
<!-- Generator: Adobe Illustrator 24.2.1, SVG Export Plug-In . SVG Version: 6.00 Build 0)  -->
<svg version="1.1" id="Capa_1" xmlns="http://www.w3.org/2000/svg" xmlns:xlink="http://www.w3.org/1999/xlink" x="0px" y="0px"
	 viewBox="0 0 196.93 196.93" style="enable-background:new 0 0 196.93 196.93;" xml:space="preserve">
<style type="text/css">
	.st0{fill:#FFFFFF;}
</style>
<g>
	<g>
		<g>
			<path class="st0" d="M184.46,46.29L99.66,5.35c-0.75-0.36-1.63-0.36-2.38,0L12.47,46.29c-0.95,0.46-1.55,1.41-1.55,2.46v99.43
				c0,1.05,0.6,2.01,1.55,2.46l84.81,40.94c0.38,0.18,0.78,0.27,1.19,0.27c0.41,0,0.81-0.09,1.19-0.27l84.81-40.94
				c0.95-0.46,1.55-1.41,1.55-2.46V48.75C186.01,47.7,185.41,46.74,184.46,46.29z M98.47,10.85l78.51,37.9l-22.76,10.99
				c-0.14-0.11-0.3-0.21-0.46-0.29L75.78,21.8L98.47,10.85z M69.6,24.9L148,62.74l-16.06,7.75L53.57,32.66L69.6,24.9z M149.83,67.93
				v28.65l-15,7.24V75.18L149.83,67.93z M180.54,146.46l-79.33,38.3V91.41l18.92-9.14c1.36-0.66,1.93-2.29,1.27-3.65
				c-0.66-1.36-2.29-1.93-3.65-1.27l-19.28,9.31l-7.59-3.66c-1.36-0.66-3-0.09-3.65,1.27c-0.66,1.36-0.09,3,1.27,3.65l7.23,3.49
				v93.35l-79.33-38.3V53.11l60.41,29.16c0.38,0.19,0.79,0.27,1.19,0.27c1.02,0,1.99-0.57,2.47-1.55c0.66-1.36,0.09-3-1.27-3.65
				l-59.23-28.6l27.18-13.12l82.19,39.68c0.01,0.02,0.03,0.03,0.04,0.05v32.83c0,0.94,0.48,1.82,1.28,2.32
				c0.44,0.28,0.95,0.42,1.45,0.42c0.41,0,0.81-0.09,1.19-0.27l20.47-9.88c0.95-0.46,1.55-1.41,1.55-2.46V65.29l25.23-12.18
				L180.54,146.46L180.54,146.46z"/>
		</g>
	</g>
	<g>
		<g>
			<path class="st0" d="M38.98,135.85l-12.45-6.01c-1.36-0.66-3-0.09-3.65,1.27s-0.09,3,1.27,3.65l12.45,6.01
				c0.38,0.19,0.79,0.27,1.19,0.27c1.02,0,1.99-0.57,2.47-1.55C40.91,138.14,40.34,136.51,38.98,135.85z"/>
		</g>
	</g>
	<g>
		<g>
			<path class="st0" d="M50.43,128.4l-23.88-11.53c-1.36-0.66-3-0.09-3.65,1.27c-0.66,1.36-0.09,3,1.27,3.65l23.88,11.53
				c0.38,0.18,0.79,0.27,1.19,0.27c1.02,0,1.99-0.57,2.47-1.55C52.36,130.69,51.79,129.05,50.43,128.4z"/>
		</g>
	</g>
</g>
</svg>
