<?xml version="1.0" encoding="utf-8"?>
<!-- Generator: Adobe Illustrator 24.2.1, SVG Export Plug-In . SVG Version: 6.00 Build 0)  -->
<svg version="1.1" id="Capa_1" xmlns="http://www.w3.org/2000/svg" xmlns:xlink="http://www.w3.org/1999/xlink" x="0px" y="0px"
	 viewBox="0 0 196.93 196.93" style="enable-background:new 0 0 196.93 196.93;" xml:space="preserve">
<style type="text/css">
	.st0{fill:#FFFFFF;}
</style>
<g>
	<g>
		<g>
			<rect x="32.82" y="54.69" class="st0" width="56.27" height="6.25"/>
			<rect x="32.82" y="67.2" class="st0" width="56.27" height="6.25"/>
			<path class="st0" d="M60.95,129.72c5.18,0,9.38-4.2,9.38-9.38s-4.2-9.38-9.38-9.38s-9.38,4.2-9.38,9.38
				S55.77,129.72,60.95,129.72z M60.95,117.22c1.73,0,3.13,1.4,3.13,3.13c0,1.73-1.4,3.13-3.13,3.13s-3.13-1.4-3.13-3.13
				C57.83,118.62,59.23,117.22,60.95,117.22z"/>
			<path class="st0" d="M60.95,135.97c-5.18,0-9.38,4.2-9.38,9.38c0,5.18,4.2,9.38,9.38,9.38s9.38-4.2,9.38-9.38
				C70.33,140.17,66.13,135.97,60.95,135.97z M60.95,148.48c-1.73,0-3.13-1.4-3.13-3.13s1.4-3.13,3.13-3.13s3.13,1.4,3.13,3.13
				S62.68,148.48,60.95,148.48z"/>
			<rect x="32.82" y="164.11" class="st0" width="6.25" height="12.5"/>
			<rect x="45.32" y="164.11" class="st0" width="6.25" height="12.5"/>
			<rect x="57.83" y="164.11" class="st0" width="6.25" height="12.5"/>
			<rect x="70.33" y="164.11" class="st0" width="6.25" height="12.5"/>
			<rect x="82.84" y="164.11" class="st0" width="6.25" height="12.5"/>
			<path class="st0" d="M177.61,29.85L177.61,29.85L102.58,4.84c-0.29-0.1-0.6-0.15-0.91-0.15c-0.03,0-0.05,0-0.08,0H20.31
				c-1.72,0-3.12,1.39-3.13,3.11v181.32c0,1.73,1.4,3.13,3.13,3.13h81.28c0.34,0,0.67-0.05,0.99-0.16l75.03-25.01
				c1.28-0.43,2.14-1.62,2.14-2.96V32.81C179.75,31.46,178.88,30.27,177.61,29.85z M98.47,185.99H23.44V10.93h75.03V185.99z
				 M173.49,161.85l-68.78,22.92V12.14l68.78,22.92V161.85z"/>
			<path class="st0" d="M32.82,42.19h56.27c1.73,0,3.13-1.4,3.13-3.13v-12.5c0-1.73-1.4-3.13-3.13-3.13H32.82
				c-1.73,0-3.13,1.4-3.13,3.13v12.5C29.69,40.79,31.09,42.19,32.82,42.19z M35.94,29.68h50.02v6.25H35.94
				C35.94,35.94,35.94,29.68,35.94,29.68z"/>
		</g>
	</g>
</g>
</svg>
