<?xml version="1.0" encoding="utf-8"?>
<!-- Generator: Adobe Illustrator 24.2.1, SVG Export Plug-In . SVG Version: 6.00 Build 0)  -->
<svg version="1.1" id="Layer_1" xmlns="http://www.w3.org/2000/svg" xmlns:xlink="http://www.w3.org/1999/xlink" x="0px" y="0px"
	 viewBox="0 0 30 30" style="enable-background:new 0 0 30 30;" xml:space="preserve">
<style type="text/css">
	.st0{clip-path:url(#SVGID_2_);}
	.st1{enable-background:new    ;}
</style>
<g>
	<defs>
		<path id="SVGID_1_" d="M15,12.03c2.46,0,4.45-1.99,4.45-4.45S17.46,3.12,15,3.12s-4.45,1.99-4.45,4.45S12.54,12.03,15,12.03z
			 M15,15c-4.1,0-7.42-3.32-7.42-7.42S10.9,0.15,15,0.15c4.1,0,7.42,3.32,7.42,7.42S19.1,15,15,15z M28.36,28.36
			c0,0.82-0.66,1.48-1.48,1.48c-0.82,0-1.48-0.66-1.48-1.48v-2.97c0-2.46-1.99-4.45-4.45-4.45H9.06c-2.46,0-4.45,1.99-4.45,4.45
			v2.97c0,0.82-0.66,1.48-1.48,1.48s-1.48-0.66-1.48-1.48v-2.97c0-4.1,3.32-7.42,7.42-7.42h11.88c4.1,0,7.42,3.32,7.42,7.42V28.36z"
			/>
	</defs>
	<use xlink:href="#SVGID_1_"  style="overflow:visible;fill:#0055B8;"/>
	<clipPath id="SVGID_2_">
		<use xlink:href="#SVGID_1_"  style="overflow:visible;"/>
	</clipPath>
	<g class="st0">
		<g class="st1">
			<g>
				<g>
					<defs>
						<rect id="SVGID_3_" x="1.64" y="0.15" width="26.72" height="29.69"/>
					</defs>
					<use xlink:href="#SVGID_3_"  style="overflow:visible;fill:#0055B8;"/>
					<clipPath id="SVGID_4_">
						<use xlink:href="#SVGID_3_"  style="overflow:visible;"/>
					</clipPath>
				</g>
			</g>
		</g>
	</g>
</g>
</svg>
