<?xml version="1.0" encoding="utf-8"?>
<!-- Generator: Adobe Illustrator 24.2.1, SVG Export Plug-In . SVG Version: 6.00 Build 0)  -->
<svg version="1.1" id="Capa_1" xmlns="http://www.w3.org/2000/svg" xmlns:xlink="http://www.w3.org/1999/xlink" x="0px" y="0px"
	 viewBox="0 0 232 77" style="enable-background:new 0 0 232 77;" xml:space="preserve">
<style type="text/css">
	.st0{fill:#FFFFFF;}
	.st1{fill-rule:evenodd;clip-rule:evenodd;fill:#FFFFFF;}
</style>
<path class="st0" d="M199.83,27.25v12.59l22.21,12.68c0,0,6.58-6.36,0.31-12.64L199.83,27.25z"/>
<g>
	<path class="st1" d="M168.92,53.27c-0.11,0.03-0.29,0.09-0.46,0.15c-6.3,2.43-12.61,4.85-18.91,7.27
		c-0.35,0.14-0.65,0.31-0.66,0.74c-0.02,0.47,0.3,0.64,0.66,0.79c2.38,0.99,4.75,1.99,7.13,2.95c0.57,0.23,0.93,0.59,1.17,1.16
		c0.96,2.36,1.96,4.72,2.93,7.08c0.16,0.38,0.33,0.73,0.8,0.71c0.47-0.01,0.64-0.37,0.79-0.75c2.39-6.23,4.79-12.46,7.18-18.69
		c0.08-0.2,0.16-0.41,0.18-0.62C169.79,53.62,169.44,53.25,168.92,53.27z"/>
</g>
<polygon class="st0" points="199.83,53.28 199.83,65.85 219.14,54.6 208.4,48.49 "/>
<path class="st0" d="M183.59,2.58c0,0,0,39.89,0,45.01c0,5.12-3.04,8.83-8.18,8.83c-1.05,0-2.02-0.17-2.89-0.48l-4.55,12.11
	c2.18,0.78,4.65,1.23,7.43,1.23c16.45,0,21.03-14.35,21.03-20.36c0-5.1,0-46.33,0-46.33H183.59z"/>
<path class="st0" d="M176.16,27.21c-16.75,0-21.77,14.32-21.77,20.51c0,2.21,0.4,4.7,1.24,7.16l11.89-4.53
	c-0.18-0.7-0.28-1.4-0.28-2.11c0-4.06,3.35-8.18,8.18-8.18c1.1,0,3.26,0,4.83,0V27.21C179.21,27.21,177.79,27.21,176.16,27.21z"/>
<path class="st0" d="M73.3,58.44l-5.08,0.02l5.01-14.21h-7.64l1.58-4.43h20.12l-1.57,4.43h-7.41L73.3,58.46V58.44z"/>
<path class="st0" d="M121.59,58.46h-13.25c-0.93,0-1.7-0.22-2.3-0.66c-0.59-0.45-0.89-1.08-0.89-1.9c0-0.44,0.08-0.9,0.26-1.4
	l4.38-12.54c0.48-1.38,1.36-2.08,2.65-2.08h15.72l-1.54,4.38h-11c-1.03,0-1.66,0.36-1.89,1.05c0.05-0.17-0.88,2.45-2.77,7.86
	c-0.02,0.06-0.03,0.12-0.03,0.18c0,0.48,0.39,0.72,1.17,0.72h11.05L121.59,58.46z"/>
<g>
	<polygon class="st0" points="135.1,39.83 130.19,39.83 123.59,58.46 128.32,58.46 	"/>
	<polygon class="st0" points="144.65,39.83 142.24,46.61 134.86,46.61 133.29,50.93 140.68,50.93 138,58.46 143.09,58.46 
		149.71,39.83 	"/>
</g>
<path class="st0" d="M104.71,39.88H91.03c-1.32,0-2.16,0.48-2.5,1.44l-4.27,12.36c-0.34,0.99-0.51,1.73-0.51,2.21
	c0,1.71,1.37,2.56,4.1,2.56h12.8l1.6-4.39H90.44c-0.62,0-0.93-0.24-0.93-0.73c0-0.2,0.05-0.46,0.16-0.75l0.4-1.2h14.69l2.42-6.84
	c0.31-0.9,0.47-1.65,0.47-2.26C107.65,40.68,106.67,39.88,104.71,39.88z M101.75,45.46l-0.51,1.55h-9.58l0.63-1.94
	c0.11-0.34,0.33-0.57,0.65-0.69c0.23-0.08,0.63-0.12,1.19-0.12h6.53c0.76,0,1.14,0.3,1.14,0.9
	C101.79,45.27,101.78,45.37,101.75,45.46z"/>
<path class="st0" d="M28.17,38.52c-6.1,0-13.62-0.17-13.62-0.17L7.29,58.64c0,0,7.97,0.03,11.11,0.03c11.38,0,15.04-9.2,15.04-15.19
	C33.44,38.44,30.09,38.52,28.17,38.52z M20.21,53.85c-1.56,0-5.53-0.01-5.53-0.01l3.62-10.68c0,0,3.74,0.09,6.79,0.09
	c0.96,0,2.63-0.05,2.63,2.6C27.72,49.01,25.89,53.85,20.21,53.85z"/>
<path class="st0" d="M51.88,38.52c-6.1,0-13.63-0.17-13.63-0.17l-7.25,20.29c0,0,7.97,0.03,11.11,0.03
	c11.38,0,15.04-9.2,15.04-15.19C57.15,38.44,53.8,38.52,51.88,38.52z M43.93,53.85c-1.56,0-5.54-0.01-5.54-0.01l3.62-10.68
	c0,0,3.75,0.09,6.78,0.09c0.96,0,2.63-0.05,2.63,2.6C51.43,49.01,49.61,53.85,43.93,53.85z"/>
</svg>
