<?xml version="1.0" encoding="utf-8"?>
<!-- Generator: Adobe Illustrator 24.2.1, SVG Export Plug-In . SVG Version: 6.00 Build 0)  -->
<svg version="1.1" id="Layer_1" xmlns="http://www.w3.org/2000/svg" xmlns:xlink="http://www.w3.org/1999/xlink" x="0px" y="0px"
	 viewBox="0 0 58.71 43.44" style="enable-background:new 0 0 58.71 43.44;" xml:space="preserve">
<style type="text/css">
	.st0{fill:#D9D9D9;}
	.st1{fill:#989898;}
	.st2{fill:#999999;}
	.st3{fill:#FFFFFF;}
	.st4{fill:#838383;}
	.st5{fill:#848484;}
	.st6{fill:#D4D4D4;}
	.st7{fill:#D1D3D4;}
	.st8{fill:#AFB1B4;}
</style>
<g>
	<g>
		<path class="st3" d="M13.98,36.18c-0.13-0.13-0.29-0.24-0.48-0.31c-0.18-0.07-0.39-0.11-0.6-0.11c-0.12,0-0.24,0.01-0.36,0.03
			c-0.13,0.02-0.25,0.06-0.37,0.11c-0.12,0.05-0.23,0.12-0.34,0.21c-0.11,0.09-0.2,0.2-0.28,0.34c-0.13-0.21-0.3-0.38-0.52-0.5
			c-0.22-0.12-0.47-0.18-0.76-0.18c-0.1,0-0.19,0.01-0.3,0.03c-0.1,0.02-0.2,0.05-0.3,0.09c-0.1,0.04-0.2,0.1-0.29,0.17
			c-0.09,0.07-0.17,0.17-0.25,0.28v-0.47h-0.8v3.83h0.81v-2.12c0-0.16,0.03-0.31,0.08-0.43C9.26,37,9.33,36.89,9.42,36.8
			c0.09-0.09,0.19-0.15,0.3-0.19c0.12-0.04,0.24-0.07,0.37-0.07c0.27,0,0.49,0.09,0.64,0.26c0.15,0.17,0.23,0.42,0.23,0.74v2.13
			h0.81v-2.12c0-0.16,0.03-0.31,0.08-0.43c0.05-0.13,0.12-0.23,0.21-0.32c0.09-0.09,0.19-0.15,0.3-0.19
			c0.12-0.04,0.24-0.07,0.37-0.07c0.27,0,0.49,0.09,0.64,0.26c0.15,0.17,0.23,0.42,0.23,0.74v2.13h0.81v-2.4
			c0-0.22-0.04-0.43-0.11-0.62C14.22,36.47,14.11,36.31,13.98,36.18z"/>
		<path class="st3" d="M18.26,36.31c-0.13-0.17-0.3-0.31-0.5-0.41c-0.2-0.1-0.43-0.15-0.71-0.15c-0.27,0-0.52,0.05-0.75,0.15
			c-0.23,0.1-0.43,0.24-0.61,0.42c-0.17,0.18-0.31,0.39-0.41,0.64c-0.1,0.25-0.15,0.52-0.15,0.81c0,0.29,0.05,0.56,0.15,0.81
			c0.1,0.25,0.23,0.46,0.41,0.64c0.17,0.18,0.38,0.32,0.61,0.42c0.23,0.1,0.48,0.15,0.75,0.15c0.27,0,0.51-0.05,0.71-0.15
			c0.2-0.1,0.36-0.24,0.5-0.41v0.46h0.83v-3.83h-0.83V36.31z M18.23,38.25c-0.06,0.15-0.13,0.28-0.24,0.39
			c-0.1,0.11-0.22,0.2-0.36,0.26c-0.14,0.06-0.3,0.09-0.47,0.09c-0.18,0-0.34-0.03-0.49-0.1c-0.14-0.07-0.26-0.15-0.36-0.26
			c-0.1-0.11-0.17-0.24-0.23-0.39C16.03,38.09,16,37.93,16,37.76c0-0.17,0.03-0.33,0.08-0.48c0.05-0.15,0.13-0.28,0.23-0.39
			c0.1-0.11,0.22-0.2,0.36-0.26c0.14-0.07,0.3-0.1,0.49-0.1c0.17,0,0.33,0.03,0.47,0.09c0.14,0.06,0.26,0.15,0.36,0.26
			c0.1,0.11,0.18,0.24,0.24,0.39c0.06,0.15,0.08,0.31,0.08,0.49C18.31,37.94,18.28,38.1,18.23,38.25z"/>
		<path class="st3" d="M22.93,37.76c-0.23-0.18-0.56-0.3-0.98-0.37l-0.4-0.06c-0.09-0.01-0.17-0.03-0.25-0.05
			c-0.08-0.02-0.14-0.04-0.2-0.07c-0.06-0.03-0.1-0.07-0.13-0.11c-0.03-0.05-0.05-0.1-0.05-0.17c0-0.14,0.06-0.25,0.19-0.33
			c0.13-0.08,0.3-0.13,0.53-0.13c0.12,0,0.24,0.01,0.35,0.03c0.12,0.02,0.23,0.05,0.33,0.08c0.1,0.03,0.2,0.07,0.28,0.11
			c0.09,0.04,0.16,0.08,0.22,0.11l0.36-0.65c-0.2-0.13-0.43-0.23-0.7-0.3c-0.27-0.07-0.55-0.11-0.85-0.11
			c-0.25,0-0.46,0.03-0.66,0.09c-0.19,0.06-0.36,0.14-0.5,0.24c-0.14,0.11-0.24,0.23-0.32,0.39c-0.07,0.15-0.11,0.32-0.11,0.51
			c0,0.31,0.11,0.56,0.33,0.75c0.22,0.19,0.54,0.31,0.97,0.37l0.4,0.05c0.23,0.03,0.4,0.08,0.5,0.15c0.11,0.07,0.16,0.16,0.16,0.27
			c0,0.14-0.07,0.26-0.22,0.34c-0.15,0.08-0.36,0.13-0.65,0.13c-0.16,0-0.3-0.01-0.42-0.03c-0.12-0.02-0.24-0.05-0.34-0.09
			c-0.1-0.04-0.19-0.08-0.28-0.12c-0.08-0.05-0.16-0.1-0.23-0.15l-0.39,0.63c0.14,0.1,0.28,0.19,0.44,0.25
			c0.15,0.06,0.3,0.11,0.45,0.15c0.15,0.04,0.28,0.06,0.42,0.07c0.13,0.01,0.24,0.02,0.34,0.02c0.27,0,0.52-0.03,0.74-0.09
			c0.22-0.06,0.4-0.15,0.55-0.26c0.15-0.11,0.26-0.24,0.34-0.4c0.08-0.15,0.12-0.32,0.12-0.51C23.28,38.19,23.17,37.94,22.93,37.76z
			"/>
		<path class="st3" d="M30.75,36.31c-0.16-0.18-0.35-0.31-0.57-0.41c-0.22-0.1-0.47-0.15-0.73-0.15c-0.28,0-0.54,0.05-0.77,0.15
			c-0.23,0.1-0.43,0.23-0.6,0.41c-0.17,0.18-0.3,0.39-0.39,0.64c-0.09,0.25-0.14,0.52-0.14,0.82c0,0.3,0.05,0.58,0.14,0.83
			c0.1,0.25,0.23,0.46,0.4,0.63c0.17,0.18,0.38,0.31,0.62,0.41c0.24,0.1,0.5,0.14,0.79,0.14c0.29,0,0.57-0.04,0.83-0.12
			c0.26-0.08,0.51-0.22,0.74-0.42l-0.42-0.6c-0.16,0.13-0.34,0.23-0.53,0.3c-0.19,0.07-0.39,0.11-0.58,0.11
			c-0.14,0-0.27-0.02-0.39-0.06c-0.13-0.04-0.24-0.1-0.34-0.17c-0.1-0.08-0.19-0.18-0.26-0.3c-0.07-0.12-0.12-0.27-0.15-0.44h2.83
			c0.01-0.05,0.01-0.1,0.01-0.15c0-0.05,0-0.11,0-0.16c0-0.3-0.04-0.57-0.13-0.82C31.03,36.7,30.91,36.48,30.75,36.31z M28.41,37.44
			c0.02-0.14,0.06-0.27,0.11-0.38c0.05-0.12,0.12-0.22,0.21-0.3c0.08-0.08,0.18-0.15,0.3-0.19c0.12-0.05,0.25-0.07,0.4-0.07
			c0.27,0,0.48,0.08,0.65,0.25c0.17,0.17,0.27,0.4,0.32,0.69H28.41z"/>
		<path class="st3" d="M41.84,36.31c-0.13-0.17-0.3-0.31-0.5-0.41c-0.2-0.1-0.43-0.15-0.71-0.15c-0.27,0-0.52,0.05-0.75,0.15
			c-0.23,0.1-0.43,0.24-0.61,0.42c-0.17,0.18-0.31,0.39-0.41,0.64c-0.1,0.25-0.15,0.52-0.15,0.81c0,0.29,0.05,0.56,0.15,0.81
			c0.1,0.25,0.23,0.46,0.41,0.64c0.17,0.18,0.38,0.32,0.61,0.42c0.23,0.1,0.48,0.15,0.75,0.15c0.27,0,0.51-0.05,0.71-0.15
			s0.36-0.24,0.5-0.41v0.46h0.83v-3.83h-0.83V36.31z M41.81,38.25c-0.06,0.15-0.13,0.28-0.24,0.39c-0.1,0.11-0.22,0.2-0.36,0.26
			c-0.14,0.06-0.3,0.09-0.47,0.09c-0.18,0-0.34-0.03-0.49-0.1c-0.14-0.07-0.26-0.15-0.36-0.26c-0.1-0.11-0.17-0.24-0.23-0.39
			c-0.05-0.15-0.08-0.31-0.08-0.48c0-0.17,0.03-0.33,0.08-0.48c0.05-0.15,0.13-0.28,0.23-0.39c0.1-0.11,0.22-0.2,0.36-0.26
			c0.14-0.07,0.3-0.1,0.49-0.1c0.17,0,0.33,0.03,0.47,0.09c0.14,0.06,0.26,0.15,0.36,0.26c0.1,0.11,0.18,0.24,0.24,0.39
			c0.06,0.15,0.08,0.31,0.08,0.49C41.89,37.94,41.86,38.1,41.81,38.25z"/>
		<path class="st3" d="M26.51,38.91c-0.13,0.05-0.27,0.08-0.4,0.08c-0.09,0-0.16-0.01-0.24-0.04c-0.07-0.03-0.14-0.07-0.19-0.13
			c-0.05-0.06-0.1-0.13-0.13-0.22c-0.03-0.09-0.05-0.2-0.05-0.33v-1.67h1.34v-0.76h-1.34v-1.16h-0.84v1.16H23.9v0.76h0.76v1.68
			c0,0.51,0.12,0.88,0.36,1.12c0.24,0.24,0.58,0.36,1.01,0.36c0.24,0,0.46-0.04,0.65-0.11c0.13-0.05,0.25-0.11,0.36-0.17l-0.29-0.7
			C26.69,38.84,26.6,38.88,26.51,38.91z"/>
		<path class="st3" d="M34.05,35.75c-0.23,0-0.45,0.04-0.64,0.13c-0.19,0.09-0.35,0.29-0.48,0.47v-0.5h-0.76v3.83h0.77v-2.1
			c0-0.16,0.02-0.31,0.07-0.44c0.05-0.13,0.11-0.24,0.19-0.32c0.08-0.09,0.18-0.15,0.29-0.2c0.11-0.05,0.23-0.07,0.37-0.07
			c0.1,0,0.21,0.01,0.33,0.04c0.06,0.01,0.12,0.03,0.17,0.05l0.25-0.8c-0.07-0.02-0.13-0.04-0.2-0.05
			C34.29,35.76,34.17,35.75,34.05,35.75z"/>
		<path class="st3" d="M45.65,35.75c-0.23,0-0.45,0.04-0.64,0.13c-0.19,0.09-0.35,0.29-0.48,0.47v-0.5h-0.76v3.83h0.77v-2.1
			c0-0.16,0.02-0.31,0.07-0.44c0.05-0.13,0.11-0.24,0.19-0.32c0.08-0.09,0.18-0.15,0.29-0.2c0.11-0.05,0.23-0.07,0.37-0.07
			c0.1,0,0.21,0.01,0.33,0.04c0.06,0.01,0.12,0.03,0.17,0.05l0.25-0.8c-0.07-0.02-0.13-0.04-0.2-0.05
			C45.89,35.76,45.78,35.75,45.65,35.75z"/>
		<path class="st3" d="M49.55,34.29v2.02c-0.13-0.17-0.3-0.31-0.5-0.41c-0.2-0.1-0.43-0.15-0.71-0.15c-0.27,0-0.52,0.05-0.75,0.15
			c-0.23,0.1-0.43,0.24-0.61,0.42c-0.17,0.18-0.31,0.39-0.41,0.64c-0.1,0.25-0.15,0.52-0.15,0.81c0,0.29,0.05,0.56,0.15,0.81
			c0.1,0.25,0.23,0.46,0.41,0.64c0.17,0.18,0.38,0.32,0.61,0.42c0.23,0.1,0.48,0.15,0.75,0.15c0.27,0,0.51-0.05,0.71-0.15
			c0.2-0.1,0.36-0.24,0.5-0.41v0.46h0.83v-5.38H49.55z M49.52,38.25c-0.06,0.15-0.13,0.28-0.24,0.39c-0.1,0.11-0.22,0.2-0.36,0.26
			c-0.14,0.06-0.3,0.09-0.47,0.09c-0.18,0-0.34-0.03-0.49-0.1c-0.14-0.07-0.26-0.15-0.36-0.26c-0.1-0.11-0.17-0.24-0.23-0.39
			c-0.05-0.15-0.08-0.31-0.08-0.48c0-0.17,0.03-0.33,0.08-0.48c0.05-0.15,0.13-0.28,0.23-0.39c0.1-0.11,0.22-0.2,0.36-0.26
			c0.14-0.07,0.3-0.1,0.49-0.1c0.17,0,0.33,0.03,0.47,0.09c0.14,0.06,0.26,0.15,0.36,0.26c0.1,0.11,0.18,0.24,0.24,0.39
			c0.06,0.15,0.08,0.31,0.08,0.49C49.6,37.94,49.57,38.1,49.52,38.25z"/>
		<path class="st3" d="M36.04,36.88c0.11-0.11,0.23-0.19,0.38-0.25c0.15-0.06,0.3-0.09,0.48-0.09v0c0.19,0,0.36,0.03,0.52,0.09
			c0.16,0.06,0.29,0.14,0.41,0.24l0.4-0.67c-0.15-0.12-0.32-0.22-0.51-0.3c-0.25-0.1-0.53-0.15-0.82-0.15
			c-0.3,0-0.57,0.05-0.82,0.15c-0.25,0.1-0.47,0.24-0.65,0.42c-0.18,0.18-0.33,0.39-0.43,0.64c-0.1,0.24-0.16,0.51-0.16,0.8
			c0,0.29,0.05,0.55,0.16,0.8c0.1,0.24,0.25,0.46,0.43,0.64c0.18,0.18,0.4,0.32,0.65,0.42c0.25,0.1,0.53,0.15,0.82,0.15
			c0.3,0,0.57-0.05,0.82-0.15c0.19-0.08,0.36-0.18,0.51-0.3l-0.4-0.67c-0.11,0.1-0.25,0.18-0.41,0.24
			c-0.16,0.06-0.34,0.09-0.52,0.09v0c-0.17,0-0.33-0.03-0.48-0.09c-0.15-0.06-0.27-0.14-0.38-0.25c-0.11-0.11-0.19-0.24-0.25-0.39
			c-0.06-0.15-0.09-0.32-0.09-0.5c0-0.18,0.03-0.35,0.09-0.5C35.85,37.12,35.94,36.99,36.04,36.88z"/>
	</g>
	<g>
		<path class="st3" d="M52.14,39.12c0.06,0,0.11,0.01,0.16,0.03c0.05,0.02,0.09,0.05,0.13,0.08c0.04,0.04,0.06,0.08,0.09,0.12
			c0.02,0.05,0.03,0.1,0.03,0.15c0,0.05-0.01,0.1-0.03,0.15c-0.02,0.05-0.05,0.09-0.09,0.12c-0.04,0.04-0.08,0.06-0.13,0.08
			c-0.05,0.02-0.1,0.03-0.16,0.03c-0.06,0-0.11-0.01-0.16-0.03c-0.05-0.02-0.09-0.05-0.13-0.08c-0.04-0.04-0.06-0.08-0.09-0.12
			c-0.02-0.05-0.03-0.1-0.03-0.15c0-0.05,0.01-0.1,0.03-0.15c0.02-0.05,0.05-0.09,0.09-0.12c0.04-0.04,0.08-0.06,0.13-0.08
			C52.03,39.13,52.09,39.12,52.14,39.12z M52.14,39.79c0.04,0,0.08-0.01,0.11-0.02s0.06-0.03,0.09-0.06
			c0.03-0.03,0.05-0.06,0.06-0.09c0.01-0.03,0.02-0.07,0.02-0.11c0-0.04-0.01-0.08-0.02-0.11c-0.01-0.03-0.03-0.06-0.06-0.09
			c-0.03-0.03-0.05-0.05-0.09-0.06c-0.03-0.01-0.07-0.02-0.11-0.02c-0.04,0-0.08,0.01-0.11,0.02c-0.03,0.01-0.06,0.03-0.09,0.06
			c-0.03,0.03-0.05,0.06-0.06,0.09c-0.01,0.03-0.02,0.07-0.02,0.11c0,0.04,0.01,0.08,0.02,0.11c0.01,0.03,0.03,0.06,0.06,0.09
			c0.03,0.03,0.06,0.05,0.09,0.06C52.07,39.78,52.1,39.79,52.14,39.79z M52.17,39.33c0.05,0,0.08,0.01,0.11,0.03
			c0.02,0.02,0.04,0.05,0.04,0.08c0,0.03-0.01,0.05-0.03,0.07c-0.02,0.02-0.04,0.03-0.08,0.04l0.11,0.12H52.2l-0.1-0.12h-0.01v0.12
			h-0.1v-0.35H52.17z M52.09,39.42v0.06h0.07c0.02,0,0.03,0,0.03-0.01c0.01,0,0.01-0.01,0.01-0.02c0-0.01,0-0.02-0.01-0.02
			c-0.01-0.01-0.02-0.01-0.03-0.01H52.09z"/>
	</g>
	<g>
		<path class="st7" d="M23.85,17.96c0-4.58,2.14-8.67,5.48-11.31c-2.46-1.95-5.56-3.11-8.94-3.11C12.42,3.54,5.96,10,5.96,17.96
			s6.46,14.42,14.42,14.42c3.38,0,6.49-1.17,8.94-3.11C25.99,26.63,23.85,22.55,23.85,17.96z"/>
		<ellipse class="st8" cx="29.33" cy="17.96" rx="5.48" ry="11.31"/>
		<path class="st3" d="M51.71,25.76v-0.42h-0.17v-0.12h0.47v0.12h-0.17v0.42H51.71z M52.62,25.76v-0.37l-0.12,0.32h-0.13l-0.12-0.32
			v0.37h-0.13v-0.54h0.18l0.13,0.34l0.13-0.34h0.18v0.54H52.62z"/>
		<path class="st3" d="M38.27,3.54c-3.38,0-6.49,1.17-8.94,3.11c3.33,2.64,5.48,6.72,5.48,11.31s-2.14,8.67-5.48,11.31
			c2.46,1.95,5.56,3.11,8.94,3.11c7.96,0,14.42-6.46,14.42-14.42S46.24,3.54,38.27,3.54z"/>
	</g>
</g>
</svg>
