<?xml version="1.0" encoding="utf-8"?>
<!-- Generator: Adobe Illustrator 24.2.1, SVG Export Plug-In . SVG Version: 6.00 Build 0)  -->
<svg version="1.1" id="Layer_1" xmlns="http://www.w3.org/2000/svg" xmlns:xlink="http://www.w3.org/1999/xlink" x="0px" y="0px"
	 viewBox="0 0 111.12 43.44" style="enable-background:new 0 0 111.12 43.44;" xml:space="preserve">
<style type="text/css">
	.st0{fill:#D9D9D9;}
	.st1{fill:#989898;}
	.st2{fill:#999999;}
	.st3{fill:#FFFFFF;}
	.st4{fill:#838383;}
	.st5{fill:#848484;}
	.st6{fill:#D4D4D4;}
	.st7{fill:#D1D3D4;}
	.st8{fill:#AFB1B4;}
</style>
<g>
	<path class="st4" d="M24.19,9.55c-9.52,0-17.24,4.94-17.24,11.03c0,6.09,7.72,11.03,17.24,11.03c9.52,0,17.24-4.94,17.24-11.03
		C41.43,14.49,33.71,9.55,24.19,9.55z"/>
	<g>
		<path class="st5" d="M103.89,14.49c-0.65-0.81-1.63-1.22-2.95-1.22c-1.32,0-2.3,0.41-2.95,1.22c-0.65,0.81-0.97,1.77-0.97,2.87
			c0,1.13,0.32,2.09,0.97,2.89c0.65,0.8,1.63,1.2,2.95,1.2c1.32,0,2.3-0.4,2.95-1.2c0.65-0.8,0.97-1.76,0.97-2.89
			C104.86,16.26,104.54,15.3,103.89,14.49z M102.29,19.14c-0.31,0.42-0.76,0.63-1.35,0.63c-0.59,0-1.04-0.21-1.35-0.63
			c-0.32-0.42-0.47-1.01-0.47-1.78c0-0.77,0.16-1.36,0.47-1.77c0.32-0.41,0.77-0.62,1.35-0.62c0.59,0,1.04,0.21,1.35,0.62
			c0.31,0.41,0.47,1.01,0.47,1.77C102.76,18.13,102.6,18.72,102.29,19.14z"/>
		<path class="st5" d="M87.35,13.81c-0.66-0.33-1.41-0.5-2.25-0.5c-1.3,0-2.22,0.34-2.75,1.02c-0.34,0.43-0.52,0.99-0.57,1.66h1.94
			c0.05-0.3,0.14-0.53,0.29-0.71c0.2-0.24,0.54-0.35,1.02-0.35c0.43,0,0.76,0.06,0.98,0.18c0.22,0.12,0.33,0.34,0.33,0.65
			c0,0.26-0.14,0.45-0.43,0.57c-0.16,0.07-0.43,0.13-0.8,0.18l-0.69,0.08c-0.78,0.1-1.38,0.26-1.78,0.49
			c-0.74,0.42-1.1,1.11-1.1,2.05c0,0.73,0.23,1.29,0.69,1.69c0.46,0.4,1.04,0.56,1.74,0.6c4.39,0.2,4.34-2.31,4.38-2.84V15.7
			C88.34,14.77,88.01,14.14,87.35,13.81z M86.33,18.19c-0.01,0.67-0.21,1.14-0.58,1.39c-0.37,0.25-0.77,0.38-1.21,0.38
			c-0.28,0-0.51-0.08-0.71-0.23c-0.19-0.15-0.29-0.4-0.29-0.74c0-0.39,0.16-0.67,0.47-0.85c0.19-0.11,0.5-0.2,0.92-0.27l0.46-0.09
			c0.23-0.04,0.41-0.09,0.54-0.14c0.13-0.05,0.26-0.11,0.39-0.19V18.19z"/>
		<path class="st5" d="M77.34,15.03c0.5,0,0.87,0.15,1.11,0.46c0.16,0.23,0.27,0.49,0.3,0.77h2.17c-0.12-1.09-0.5-1.86-1.15-2.29
			c-0.65-0.43-1.48-0.65-2.49-0.65c-1.19,0-2.13,0.37-2.81,1.1c-0.68,0.73-1.02,1.76-1.02,3.07c0,1.16,0.31,2.11,0.92,2.85
			c0.61,0.73,1.57,1.1,2.87,1.1c1.3,0,2.29-0.44,2.95-1.32c0.42-0.54,0.65-1.12,0.7-1.73h-2.16c-0.04,0.4-0.17,0.73-0.38,0.99
			c-0.21,0.25-0.56,0.38-1.06,0.38c-0.7,0-1.17-0.32-1.43-0.96c-0.14-0.34-0.21-0.79-0.21-1.35c0-0.59,0.07-1.06,0.21-1.42
			C76.14,15.37,76.63,15.03,77.34,15.03z"/>
		<path class="st5" d="M72.88,13.33c-4.45,0-4.19,3.94-4.19,3.94v4h2.02v-3.75c0-0.61,0.08-1.07,0.23-1.37
			c0.28-0.52,0.82-0.79,1.63-0.79c0.06,0,0.14,0,0.24,0.01c0.1,0,0.21,0.01,0.34,0.03v-2.05c-0.09-0.01-0.15-0.01-0.17-0.01
			C72.95,13.34,72.92,13.33,72.88,13.33z"/>
		<path class="st5" d="M65.46,19.18c-0.08,0.12-0.18,0.22-0.28,0.31c-0.29,0.23-0.67,0.31-1.13,0.31c-0.43,0-0.77-0.07-1.07-0.26
			c-0.5-0.31-0.79-0.83-0.82-1.6h5.59c0.01-0.66-0.01-1.17-0.07-1.52c-0.09-0.6-0.3-1.13-0.61-1.59c-0.35-0.52-0.79-0.89-1.33-1.14
			c-0.53-0.24-1.14-0.36-1.8-0.36c-1.12,0-2.04,0.35-2.74,1.06c-0.7,0.71-1.06,1.73-1.06,3.06c0,1.42,0.39,2.44,1.17,3.07
			c0.78,0.63,1.68,0.94,2.7,0.94c1.24,0,2.2-0.37,2.88-1.12c0.37-0.39,0.6-0.78,0.7-1.16H65.46z M62.75,15.42
			c0.28-0.29,0.68-0.44,1.2-0.44c0.47,0,0.87,0.14,1.19,0.41c0.32,0.28,0.5,0.68,0.53,1.21h-3.45
			C62.29,16.11,62.47,15.72,62.75,15.42z"/>
		<g>
			<path class="st5" d="M59.33,21.27h-1.84v-4.64c0-0.42-0.14-1.43-1.36-1.43c-0.81,0-1.4,0.58-1.4,1.43v4.64h-1.85v-4.64
				c0-0.42-0.13-1.43-1.34-1.43c-0.83,0-1.4,0.58-1.4,1.43v4.64h-1.84v-4.6c0-1.92,1.27-3.37,3.24-3.37c0.98,0,1.77,0.41,2.29,1.07
				c0.54-0.66,1.36-1.07,2.29-1.07c2.01,0,3.2,1.39,3.2,3.37V21.27z"/>
		</g>
		<path class="st5" d="M96.42,10.91c0,0-2.03-0.22-2.03,1.42l0,2.16c-0.23-0.36-0.52-0.64-0.88-0.85c-0.36-0.2-0.77-0.31-1.24-0.31
			c-1.01,0-1.81,0.38-2.42,1.13c-0.6,0.75-0.9,1.83-0.9,3.14c0,1.14,0.31,2.07,0.92,2.79c0.61,0.72,1.81,1.04,2.88,1.04
			c3.72,0,3.67-3.19,3.67-3.19L96.42,10.91z M94,19.16c-0.29,0.42-0.73,0.63-1.29,0.63c-0.57,0-0.99-0.21-1.27-0.64
			c-0.28-0.43-0.42-1.04-0.42-1.75c0-0.66,0.14-1.21,0.41-1.65c0.27-0.44,0.7-0.67,1.29-0.67c0.38,0,0.72,0.12,1.01,0.37
			c0.47,0.4,0.71,1.13,0.71,2.06C94.45,18.19,94.3,18.73,94,19.16z"/>
	</g>
	<g>
		<g>
			<path class="st6" d="M50.32,34.09c0,0.27-0.1,0.51-0.3,0.7c-0.2,0.2-0.43,0.29-0.71,0.29h-1.01v-7.01c0-1.36,0.46-2.22,1.22-2.8
				c0.5-0.38,1.25-0.75,2.64-0.75c0.94,0,2.05,0.37,2.64,1.09c0.67,0.82,0.95,1.73,0.95,2.92c0,1.23-0.3,2.22-0.89,2.99
				c-0.59,0.74-1.36,1.11-2.29,1.11c-0.49,0-0.93-0.09-1.3-0.26c-0.4-0.2-0.71-0.5-0.95-0.91V34.09z M53.71,28.62
				c0-0.76-0.15-1.35-0.45-1.76c-0.3-0.41-0.72-0.62-1.28-0.62c-0.53,0-0.95,0.21-1.25,0.62c-0.28,0.37-0.41,0.96-0.41,1.76
				c0,0.74,0.15,1.3,0.44,1.67c0.3,0.41,0.72,0.62,1.28,0.62c0.51,0,0.92-0.2,1.22-0.62C53.56,29.88,53.71,29.33,53.71,28.62"/>
			<path class="st6" d="M69.13,31.99v-0.5c-0.35,0.55-0.82,0.89-1.41,1.02c-0.59,0.14-1.18,0.09-1.76-0.15
				c-0.58-0.23-1.08-0.67-1.5-1.3c-0.42-0.64-0.63-1.47-0.63-2.5c0-1.21,0.28-2.19,0.83-2.94c0.55-0.75,1.44-1.09,2.67-1.13
				c1.21-0.03,1.91,0.24,2.59,0.76c0.75,0.57,1.19,1.44,1.19,2.81v4.13c0,1.31-0.91,3.75-3.79,3.54c-1.78-0.13-2.77-0.86-3.32-2.52
				h2.13c0.16,0.27,0.39,0.48,0.72,0.63c0.32,0.15,0.64,0.19,0.96,0.12c0.32-0.07,0.61-0.26,0.88-0.57
				C68.94,33.08,69.09,32.61,69.13,31.99 M65.81,28.62c0,1.35,0.39,2.09,1.17,2.24c0.78,0.14,1.35-0.04,1.72-0.54
				c0.18-0.21,0.3-0.55,0.38-1.01c0.08-0.46,0.08-0.91,0.01-1.36c-0.07-0.45-0.23-0.85-0.48-1.2c-0.25-0.35-0.62-0.53-1.11-0.53
				c-0.66,0-1.11,0.24-1.34,0.73C65.92,27.44,65.81,28,65.81,28.62"/>
			<path class="st6" d="M62.1,25.05c-0.66-0.33-1.41-0.5-2.25-0.5c-1.3,0-2.22,0.34-2.75,1.02c-0.33,0.43-0.52,0.99-0.57,1.66h1.94
				c0.05-0.3,0.14-0.53,0.29-0.71c0.2-0.24,0.54-0.35,1.02-0.35c0.43,0,0.76,0.06,0.98,0.18c0.22,0.12,0.33,0.34,0.33,0.65
				c0,0.26-0.14,0.45-0.43,0.57c-0.16,0.07-0.43,0.13-0.8,0.18l-0.69,0.08c-0.78,0.1-1.38,0.26-1.78,0.49
				c-0.74,0.42-1.1,1.11-1.1,2.05c0,0.73,0.23,1.29,0.69,1.69c0.46,0.4,1.04,0.56,1.74,0.6c4.39,0.2,4.34-2.31,4.38-2.84v-2.89
				C63.08,26.02,62.76,25.39,62.1,25.05 M61.08,29.44c-0.01,0.67-0.21,1.14-0.58,1.39c-0.37,0.25-0.77,0.38-1.21,0.38
				c-0.28,0-0.51-0.08-0.71-0.23c-0.19-0.15-0.29-0.4-0.29-0.75c0-0.38,0.16-0.67,0.48-0.85c0.19-0.11,0.5-0.2,0.92-0.27l0.46-0.09
				c0.23-0.04,0.41-0.09,0.54-0.14c0.13-0.05,0.26-0.11,0.39-0.19V29.44z"/>
			<path class="st6" d="M78.75,25.69c-0.65-0.81-1.63-1.22-2.95-1.22c-1.32,0-2.3,0.4-2.95,1.22c-0.65,0.81-0.97,1.77-0.97,2.87
				c0,1.12,0.32,2.09,0.97,2.89c0.65,0.8,1.63,1.2,2.95,1.2c1.32,0,2.3-0.4,2.95-1.2c0.65-0.8,0.97-1.76,0.97-2.89
				C79.72,27.46,79.39,26.5,78.75,25.69 M77.14,30.34c-0.31,0.42-0.76,0.63-1.35,0.63s-1.04-0.21-1.35-0.63
				c-0.32-0.42-0.47-1.01-0.47-1.78c0-0.77,0.16-1.36,0.47-1.77c0.32-0.42,0.77-0.62,1.35-0.62s1.04,0.21,1.35,0.62
				c0.31,0.41,0.47,1.01,0.47,1.77C77.61,29.33,77.46,29.93,77.14,30.34"/>
		</g>
	</g>
	<path class="st6" d="M24.19,8.86c-9.9,0-17.93,5.27-17.93,11.73c0,0.17,0,0.63,0,0.69c0,6.85,7.02,12.41,17.93,12.41
		c10.98,0,17.93-5.55,17.93-12.4c0-0.24,0-0.38,0-0.69C42.12,14.13,34.09,8.86,24.19,8.86z M24.19,31.61
		c-9.52,0-17.24-4.94-17.24-11.03c0-6.09,7.72-11.03,17.24-11.03c9.52,0,17.24,4.94,17.24,11.03
		C41.43,26.68,33.71,31.61,24.19,31.61z"/>
	<path class="st3" d="M41.38,19.7l-0.47,0.07l-2.16-0.1l-4.59,0.55l-4.15,1.51l0.24-6.14l0.91-2.56l0.86-0.05l0.86-0.24l1.8-0.63
		l1.23-0.13l0.52-0.24l-0.21-0.91l-0.73-0.26l0.26-0.94L35.1,8.97l-1.72-1.06h-0.47l-1.65,1.4l-1.91,2.25l-2.27,4.34l-3.06,6.97
		l-1.36-2.74l-3.68-8.02l-0.5-0.42l-2.72-3.17l-0.96-0.61L14.15,8.1l-1.79,1.38l-0.03,1.03l-0.37,0.16l-0.56,0.73l0.52,0.47
		l1.46,0.24l3.43,1.02l0.17,0.1l0.31,0.97l0.73,2.48l0,4.79l-0.6,0.13l-1.23-0.47l-4.36-1.1l-2.17-0.18L6.93,20
		c0.02,3.96,2.04,5.77,2.04,5.77l0.87-0.41l3.96,0.69l6.17-0.15l3.21-0.54l0.83-1.06l0.52,0.95l3.18,0.82h4.67l3.94-0.49l1.74-0.19
		l1.14,0.61C41.7,23.51,41.38,19.7,41.38,19.7z"/>
	<g>
		<path class="st6" d="M23.67,24.55c-0.58,0.84-1.48,1.01-2.38,1.07c-0.42,0.03-0.83,0.06-1.25,0.09c-1.46,0.11-2.97,0.22-4.45,0.11
			l-0.14-0.01c-1.58-0.13-3.22-0.26-4.77-0.61c-0.74-0.17-1.14-0.07-1.56,0.41c-0.05,0.06-0.32,0.34-0.37,0.52
			c-0.02,0.07,0.1,0.11,0.12,0.13c0.08,0.07,0.47-0.31,0.54-0.39c0.33-0.36,0.58-0.42,1.19-0.29c1.58,0.36,3.23,0.49,4.83,0.62
			l0.14,0.01c0.46,0.04,0.92,0.05,1.38,0.05c1.05,0,2.11-0.08,3.13-0.16c0.42-0.03,0.83-0.06,1.25-0.09c0.94-0.06,2-0.25,2.67-1.24
			c0.06-0.09,0.04-0.21-0.05-0.27C23.85,24.44,23.73,24.46,23.67,24.55z"/>
		<path class="st6" d="M41.48,19.61c-0.05-0.09-0.17-0.13-0.26-0.08c-0.3,0.16-0.58,0.08-0.92-0.02c-0.24-0.07-0.48-0.14-0.75-0.13
			c-2.61,0.15-5.26,0.67-8.11,1.58c-0.32,0.1-0.63,0.22-0.94,0.33c-0.09,0.03-0.18,0.07-0.27,0.1c0.01-0.22,0.02-0.45,0.02-0.67
			c0.04-1.2,0.09-2.44,0.06-3.66c-0.03-1.28,0.36-2.44,0.79-3.62c0.1-0.27,0.16-0.38,0.56-0.31c0.58,0.1,1.24-0.15,1.75-0.37
			c0.71-0.31,1.35-0.57,2.06-0.55c0.59,0.02,0.97-0.28,1.07-0.84c0.13-0.72-0.44-0.89-0.81-1c-0.01,0-0.02,0-0.02,0
			c0.1-0.2,0.19-0.43,0.27-0.69c0.02-0.06,0.01-0.13-0.04-0.18c-0.41-0.51-0.97-0.87-1.5-1.21c-0.2-0.13-0.41-0.26-0.6-0.4
			c-0.44-0.31-0.96-0.24-1.49,0.19c-2.3,1.89-4.1,4.43-5.49,7.75c-0.25,0.59-0.49,1.18-0.73,1.77c-0.67,1.64-1.36,3.33-2.16,4.95
			l-0.54-1.22c-0.42-0.96-0.85-1.92-1.28-2.88c-0.22-0.49-0.43-0.98-0.65-1.47c-0.61-1.37-1.23-2.79-1.88-4.17
			c-0.71-1.5-1.89-2.61-3.03-3.69c-0.39-0.37-0.79-0.75-1.17-1.14c-0.38-0.39-0.96-0.37-1.21-0.18c-0.2,0.15-0.42,0.29-0.63,0.43
			c-0.45,0.29-0.92,0.58-1.27,1.04c-0.29,0.38-0.34,0.78-0.18,1.13c-0.37,0.1-0.75,0.29-0.88,0.93c-0.01,0.07,0.01,0.14,0.06,0.19
			c0.04,0.04,0.1,0.1,0.15,0.16c0.17,0.18,0.35,0.39,0.6,0.41c0.68,0.03,1.31,0.25,1.97,0.48c0.67,0.24,1.36,0.48,2.11,0.5
			c0.42,0.01,0.6,0.11,0.69,0.37c0.05,0.13,0.09,0.26,0.14,0.39c0.2,0.56,0.42,1.14,0.52,1.72c0.17,0.92,0.14,1.87,0.12,2.8
			c-0.03,0.99-0.06,2.02,0.16,3.02c-0.28,0.08-0.5-0.03-0.74-0.16c-0.11-0.06-0.22-0.11-0.34-0.16c-2.15-0.74-4.44-1.46-6.9-1.46
			c-0.02,0-0.04,0-0.07,0c-0.64,0-1.29,0-1.93,0l-0.89,0c-0.11,0-0.19,0.09-0.19,0.19S6.82,20,6.93,20l0.88,0c0.64,0,1.29,0,1.93,0
			c0.02,0,0.04,0,0.06,0c2.39,0,4.66,0.71,6.77,1.44c0.09,0.03,0.18,0.08,0.28,0.13c0.2,0.11,0.44,0.23,0.73,0.23
			c0.15,0,0.31-0.03,0.5-0.12c0.08-0.04,0.13-0.13,0.11-0.22c-0.25-1-0.22-2.01-0.19-3.08c0.03-0.94,0.06-1.92-0.12-2.88
			c-0.11-0.61-0.33-1.21-0.54-1.78c-0.05-0.13-0.09-0.26-0.14-0.38c-0.19-0.54-0.66-0.62-1.04-0.63c-0.68-0.02-1.32-0.24-1.99-0.48
			c-0.66-0.23-1.35-0.47-2.08-0.5c-0.08,0-0.23-0.17-0.33-0.28c-0.03-0.04-0.07-0.08-0.1-0.11c0.12-0.41,0.37-0.49,0.7-0.56
			c0.01,0,0.02-0.01,0.03-0.01c0.02,0.02,0.04,0.04,0.06,0.06c0.43,0.34,1.31,1.03,2.3,0.35c0.31,0.39,0.66,0.75,1.1,1.04
			c0.03,0.02,0.07,0.03,0.11,0.03c0.06,0,0.13-0.03,0.16-0.09c0.06-0.09,0.03-0.21-0.06-0.27c-0.59-0.38-1.01-0.93-1.44-1.51
			c-0.15-0.19-0.3-0.4-0.46-0.59c-0.07-0.08-0.19-0.09-0.27-0.03c-0.08,0.07-0.1,0.19-0.03,0.27c0.15,0.19,0.3,0.38,0.45,0.58
			c0.07,0.09,0.13,0.17,0.2,0.26c-0.62,0.41-1.16,0.18-1.82-0.35c-0.45-0.35-0.24-0.76-0.07-0.98c0.31-0.4,0.72-0.67,1.17-0.95
			c0.22-0.14,0.45-0.28,0.66-0.45c0.09-0.07,0.45-0.11,0.7,0.14c0.38,0.39,0.79,0.78,1.18,1.15c1.12,1.05,2.27,2.13,2.94,3.57
			c0.65,1.38,1.27,2.79,1.88,4.16c0.22,0.49,0.43,0.98,0.65,1.47c0.43,0.96,0.85,1.92,1.28,2.88l0.57,1.29
			c0.03,0.07,0.09,0.11,0.16,0.11c-0.14,0.35-0.14,0.78,0.01,1.23c0.22,0.64,0.71,1.21,1.27,1.49c0.41,0.2,0.9,0.32,1.44,0.37
			l0.28,0.02c1.47,0.12,2.98,0.23,4.48,0.23c0.56,0,1.12-0.02,1.67-0.06c1.39-0.1,2.88-0.24,4.3-0.62c0.78-0.21,1.15,0.01,1.57,0.47
			c0.07,0.08,0.36,0.4,0.44,0.2c0.12-0.31-0.08-0.38-0.15-0.46c-0.48-0.54-1-0.85-1.96-0.59c-1.39,0.37-2.85,0.51-4.23,0.61
			c-2.03,0.14-4.1-0.02-6.1-0.18l-0.28-0.02c-0.49-0.04-0.93-0.15-1.3-0.33c-0.48-0.23-0.89-0.72-1.08-1.27
			c-0.13-0.38-0.13-0.74,0.01-1.02c0.85-1.71,1.58-3.5,2.29-5.23c0.24-0.59,0.48-1.18,0.73-1.77c1.37-3.26,3.12-5.75,5.38-7.6
			c0.27-0.22,0.66-0.43,1.02-0.17c0.2,0.14,0.41,0.28,0.62,0.41c0.5,0.32,0.98,0.63,1.35,1.05c-0.2,0.63-0.47,1.02-0.82,1.19
			c-0.32,0.16-0.74,0.14-1.29-0.04c0.26-0.34,0.5-0.69,0.71-1.03c0.06-0.09,0.03-0.21-0.06-0.27c-0.09-0.06-0.21-0.03-0.27,0.06
			c-0.53,0.81-1.12,1.72-2.07,2.27c-0.09,0.05-0.12,0.17-0.07,0.27c0.04,0.06,0.1,0.1,0.17,0.1c0.03,0,0.07-0.01,0.1-0.03
			c0.49-0.28,0.88-0.65,1.23-1.04c0.71,0.27,1.27,0.29,1.72,0.07c0.23-0.11,0.43-0.29,0.6-0.53c0.02,0.03,0.05,0.06,0.09,0.07
			c0.44,0.13,0.61,0.21,0.54,0.56c-0.07,0.37-0.28,0.53-0.68,0.52c-0.79-0.03-1.48,0.25-2.23,0.58c-0.42,0.19-1.04,0.43-1.52,0.35
			c-0.62-0.1-0.84,0.15-0.99,0.56c-0.44,1.21-0.84,2.41-0.81,3.76c0.03,1.21-0.02,2.44-0.06,3.63c-0.01,0.3-0.02,0.59-0.03,0.89
			c-0.02,0.02-0.07,0.06-0.1,0.08c-0.05,0.04-0.09,0.07-0.13,0.11c-0.08,0.08-0.08,0.2,0,0.27c0.04,0.04,0.09,0.06,0.14,0.06
			s0.1-0.02,0.14-0.06c0.03-0.03,0.06-0.05,0.09-0.08c0.06-0.05,0.12-0.1,0.17-0.16c0.02,0,0.04,0,0.05-0.01
			c0.14-0.05,0.29-0.1,0.43-0.16c0.3-0.11,0.61-0.22,0.92-0.32c2.81-0.91,5.43-1.42,8.01-1.57c0.2-0.01,0.41,0.05,0.62,0.11
			c0.36,0.11,0.77,0.23,1.21-0.02C41.5,19.82,41.54,19.7,41.48,19.61z"/>
	</g>
</g>
</svg>
