<?xml version="1.0" encoding="utf-8"?>
<!-- Generator: Adobe Illustrator 24.2.1, SVG Export Plug-In . SVG Version: 6.00 Build 0)  -->
<svg version="1.1" id="Layer_1" xmlns="http://www.w3.org/2000/svg" xmlns:xlink="http://www.w3.org/1999/xlink" x="0px" y="0px"
	 viewBox="0 0 113.53 43.44" style="enable-background:new 0 0 113.53 43.44;" xml:space="preserve">
<style type="text/css">
	.st0{fill:#D9D9D9;}
	.st1{fill:#989898;}
	.st2{fill:#999999;}
	.st3{fill:#FFFFFF;}
	.st4{fill:#838383;}
	.st5{fill:#848484;}
	.st6{fill:#D4D4D4;}
	.st7{fill:#D1D3D4;}
	.st8{fill:#AFB1B4;}
</style>
<g>
	<g>
		<g>
			<g>
				<g>
					<g>
						<path class="st0" d="M83.58,12.75h-5.24c-0.36,0-0.66,0.26-0.72,0.61L75.5,26.79c-0.04,0.26,0.16,0.5,0.43,0.5h2.69
							c0.25,0,0.46-0.18,0.5-0.43l0.6-3.81c0.06-0.35,0.36-0.61,0.72-0.61h1.66c3.45,0,5.44-1.67,5.96-4.98
							c0.23-1.45,0.01-2.58-0.67-3.38C86.65,13.21,85.33,12.75,83.58,12.75z M84.18,17.65c-0.29,1.88-1.72,1.88-3.11,1.88h-0.79
							l0.55-3.51c0.03-0.21,0.22-0.37,0.43-0.37h0.36c0.95,0,1.84,0,2.3,0.54C84.2,16.52,84.28,16.99,84.18,17.65z"/>
						<path class="st1" d="M46.22,12.75h-5.24c-0.36,0-0.66,0.26-0.72,0.61l-2.12,13.43c-0.04,0.26,0.16,0.5,0.43,0.5h2.5
							c0.36,0,0.66-0.26,0.72-0.61l0.57-3.62c0.06-0.35,0.36-0.61,0.72-0.61h1.66c3.45,0,5.44-1.67,5.96-4.98
							c0.23-1.45,0.01-2.58-0.67-3.38C49.29,13.21,47.97,12.75,46.22,12.75z M46.83,17.65c-0.29,1.88-1.72,1.88-3.11,1.88h-0.79
							l0.55-3.51c0.03-0.21,0.22-0.37,0.43-0.37h0.36c0.95,0,1.84,0,2.3,0.54C46.85,16.52,46.93,16.99,46.83,17.65z"/>
						<path class="st1" d="M61.87,17.59h-2.51c-0.21,0-0.4,0.16-0.43,0.37l-0.11,0.7l-0.18-0.25c-0.54-0.79-1.75-1.05-2.96-1.05
							c-2.77,0-5.14,2.1-5.6,5.04c-0.24,1.47,0.1,2.87,0.93,3.85c0.77,0.9,1.86,1.28,3.16,1.28c2.23,0,3.47-1.43,3.47-1.43
							l-0.11,0.7c-0.04,0.27,0.16,0.5,0.43,0.5h2.26c0.36,0,0.66-0.26,0.72-0.61l1.36-8.58C62.35,17.83,62.14,17.59,61.87,17.59z
							 M58.38,22.48c-0.24,1.43-1.38,2.39-2.83,2.39c-0.73,0-1.31-0.23-1.68-0.68c-0.37-0.44-0.51-1.06-0.39-1.76
							c0.23-1.42,1.38-2.41,2.81-2.41c0.71,0,1.29,0.24,1.67,0.68C58.34,21.15,58.49,21.78,58.38,22.48z"/>
						<path class="st0" d="M99.23,17.59h-2.51c-0.21,0-0.4,0.16-0.43,0.37l-0.11,0.7L96,18.41c-0.54-0.79-1.75-1.05-2.96-1.05
							c-2.77,0-5.14,2.1-5.6,5.04c-0.24,1.47,0.1,2.87,0.93,3.85c0.77,0.9,1.86,1.28,3.16,1.28c2.23,0,3.47-1.43,3.47-1.43
							l-0.11,0.7c-0.04,0.27,0.16,0.5,0.43,0.5h2.26c0.36,0,0.66-0.26,0.72-0.61l1.36-8.58C99.7,17.83,99.5,17.59,99.23,17.59z
							 M95.73,22.48c-0.24,1.43-1.38,2.39-2.83,2.39c-0.73,0-1.31-0.23-1.68-0.68c-0.37-0.44-0.51-1.06-0.39-1.76
							c0.23-1.42,1.38-2.41,2.81-2.41c0.71,0,1.29,0.24,1.67,0.68C95.69,21.15,95.84,21.78,95.73,22.48z"/>
						<path class="st1" d="M75.23,17.59h-2.52c-0.24,0-0.47,0.12-0.6,0.32l-3.48,5.12l-1.47-4.92c-0.09-0.31-0.38-0.52-0.7-0.52
							h-2.48c-0.3,0-0.51,0.29-0.41,0.58l2.78,8.15L63.73,30c-0.2,0.29,0,0.69,0.36,0.69h2.52c0.24,0,0.46-0.12,0.6-0.31l8.38-12.1
							C75.79,17.99,75.58,17.59,75.23,17.59z"/>
						<path class="st0" d="M102.18,13.12l-2.15,13.67c-0.04,0.26,0.16,0.5,0.43,0.5h2.16c0.36,0,0.66-0.26,0.72-0.61l2.12-13.43
							c0.04-0.26-0.16-0.5-0.43-0.5h-2.42C102.4,12.75,102.22,12.91,102.18,13.12z"/>
					</g>
				</g>
			</g>
		</g>
	</g>
	<g>
		<g>
			<path class="st0" d="M25.54,16.83c-0.28-0.32-0.62-0.58-1.02-0.79c-0.24-0.13-0.5-0.24-0.78-0.33c-0.07-0.02-0.14-0.05-0.21-0.07
				c-0.14-0.04-0.29-0.08-0.45-0.11c-0.15-0.03-0.31-0.06-0.47-0.09c-0.57-0.09-1.19-0.14-1.86-0.14h-5.63
				c-0.14,0-0.27,0.03-0.39,0.09c-0.26,0.12-0.45,0.37-0.5,0.67l-1.2,7.59l-1.11,7.06h0l-0.31,1.94c-0.05,0.33,0.2,0.62,0.53,0.62
				h3.74c0.44,0,0.82-0.32,0.89-0.76l0.04-0.19l0.7-4.46l0.05-0.25c0.07-0.44,0.45-0.76,0.89-0.76H19c3.62,0,6.46-1.47,7.28-5.73
				C26.63,19.35,26.45,17.87,25.54,16.83z"/>
		</g>
		<path class="st1" d="M24.51,16.04c0.28-1.8,0-3.02-0.97-4.13c-1.07-1.22-3-1.74-5.48-1.74h-7.18c-0.51,0-0.94,0.37-1.02,0.87
			L6.87,30c-0.06,0.37,0.23,0.71,0.61,0.71h4.43l1.11-7.06l-0.03,0.22C13.07,23.37,13.5,23,14,23h2.11c4.14,0,7.38-1.68,8.33-6.54
			C24.47,16.31,24.49,16.17,24.51,16.04"/>
	</g>
</g>
</svg>
