<?xml version="1.0" encoding="utf-8"?>
<!-- Generator: Adobe Illustrator 24.2.1, SVG Export Plug-In . SVG Version: 6.00 Build 0)  -->
<svg version="1.1" id="Layer_1" xmlns="http://www.w3.org/2000/svg" xmlns:xlink="http://www.w3.org/1999/xlink" x="0px" y="0px"
	 viewBox="0 0 158.92 43.44" style="enable-background:new 0 0 158.92 43.44;" xml:space="preserve">
<style type="text/css">
	.st0{fill:#D9D9D9;}
	.st1{fill:#989898;}
	.st2{fill:#999999;}
	.st3{fill:#FFFFFF;}
	.st4{fill:#838383;}
	.st5{fill:#848484;}
	.st6{fill:#D4D4D4;}
	.st7{fill:#D1D3D4;}
	.st8{fill:#AFB1B4;}
</style>
<g>
	<g>
		<g>
			<g>
				<g>
					<g>
						<path class="st0" d="M90.03,12h-5.68c-0.39,0-0.72,0.28-0.78,0.67l-2.3,14.56c-0.05,0.29,0.18,0.55,0.47,0.55h2.91
							c0.27,0,0.5-0.2,0.55-0.47l0.65-4.13c0.06-0.38,0.39-0.67,0.78-0.67h1.8c3.74,0,5.9-1.81,6.46-5.4
							c0.25-1.57,0.01-2.8-0.72-3.66C93.36,12.5,91.93,12,90.03,12z M90.69,17.31c-0.31,2.04-1.87,2.04-3.37,2.04h-0.86l0.6-3.8
							c0.04-0.23,0.23-0.4,0.47-0.4h0.39c1.02,0,1.99,0,2.49,0.58C90.71,16.08,90.8,16.6,90.69,17.31z"/>
						<path class="st1" d="M49.54,12h-5.68c-0.39,0-0.72,0.28-0.78,0.67l-2.3,14.56c-0.05,0.29,0.18,0.55,0.47,0.55h2.71
							c0.39,0,0.72-0.28,0.78-0.67l0.62-3.93c0.06-0.38,0.39-0.67,0.78-0.67h1.8c3.74,0,5.9-1.81,6.46-5.4
							c0.25-1.57,0.01-2.8-0.72-3.66C52.87,12.5,51.44,12,49.54,12z M50.2,17.31c-0.31,2.04-1.87,2.04-3.37,2.04h-0.86l0.6-3.8
							c0.04-0.23,0.23-0.4,0.47-0.4h0.39c1.02,0,1.99,0,2.49,0.58C50.22,16.08,50.31,16.6,50.2,17.31z"/>
						<path class="st1" d="M66.51,17.25h-2.72c-0.23,0-0.43,0.17-0.47,0.4l-0.12,0.76l-0.19-0.28c-0.59-0.85-1.9-1.14-3.21-1.14
							c-3,0-5.57,2.28-6.07,5.47c-0.26,1.59,0.11,3.11,1.01,4.18c0.83,0.98,2.01,1.38,3.42,1.38c2.42,0,3.76-1.56,3.76-1.56
							l-0.12,0.76c-0.05,0.29,0.18,0.55,0.47,0.55h2.45c0.39,0,0.72-0.28,0.78-0.67l1.47-9.31C67.02,17.51,66.8,17.25,66.51,17.25z
							 M62.72,22.54c-0.26,1.55-1.5,2.6-3.07,2.6c-0.79,0-1.42-0.25-1.83-0.73c-0.4-0.48-0.55-1.15-0.43-1.91
							c0.24-1.54,1.5-2.62,3.05-2.62c0.77,0,1.4,0.26,1.81,0.74C62.68,21.1,62.84,21.79,62.72,22.54z"/>
						<path class="st0" d="M107,17.25h-2.72c-0.23,0-0.43,0.17-0.47,0.4l-0.12,0.76l-0.19-0.28c-0.59-0.85-1.9-1.14-3.21-1.14
							c-3,0-5.57,2.28-6.07,5.47c-0.26,1.59,0.11,3.11,1.01,4.18c0.83,0.98,2.01,1.38,3.42,1.38c2.42,0,3.76-1.56,3.76-1.56
							l-0.12,0.76c-0.05,0.29,0.18,0.55,0.47,0.55h2.45c0.39,0,0.72-0.28,0.78-0.67l1.47-9.31C107.51,17.51,107.29,17.25,107,17.25z
							 M103.21,22.54c-0.26,1.55-1.5,2.6-3.07,2.6c-0.79,0-1.42-0.25-1.83-0.73c-0.4-0.48-0.55-1.15-0.43-1.91
							c0.24-1.54,1.5-2.62,3.05-2.62c0.77,0,1.4,0.26,1.81,0.74C103.16,21.1,103.33,21.79,103.21,22.54z"/>
						<path class="st1" d="M80.99,17.25h-2.73c-0.26,0-0.51,0.13-0.65,0.35l-3.77,5.55l-1.6-5.33c-0.1-0.33-0.41-0.56-0.76-0.56
							h-2.69c-0.32,0-0.55,0.32-0.45,0.63l3.01,8.83l-2.83,3.99c-0.22,0.31,0,0.75,0.39,0.75h2.73c0.26,0,0.5-0.13,0.65-0.34
							l9.09-13.11C81.59,17.68,81.37,17.25,80.99,17.25z"/>
						<path class="st0" d="M110.2,12.4l-2.33,14.82c-0.05,0.29,0.18,0.55,0.47,0.55h2.34c0.39,0,0.72-0.28,0.78-0.67l2.3-14.56
							c0.05-0.29-0.18-0.55-0.47-0.55h-2.62C110.44,12,110.24,12.17,110.2,12.4z"/>
					</g>
				</g>
			</g>
		</g>
	</g>
	<g>
		<path class="st2" d="M135.36,17.2c0.39,0,0.45,0.05,0.4,0.47c-0.07,0.51-0.8,5.17-0.88,5.71c-0.06,0.47-0.1,0.94,0.05,1.4
			c0.16,0.5,0.54,0.76,1.06,0.82c1.55,0.16,2.17-0.62,2.47-1.85c0.24-1,0.83-5.11,1.01-6.15c0.04-0.25,0.21-0.39,0.47-0.39
			c0.68,0,1.35,0,2.03,0c0.23,0,0.3,0.11,0.27,0.31c-0.05,0.39-0.94,6.7-1.46,7.87c-0.49,1.11-1.32,1.85-2.45,2.28
			c-0.88,0.33-1.8,0.48-2.73,0.41c-0.94-0.07-1.86-0.24-2.63-0.85c-0.56-0.45-0.85-1.05-0.97-1.74c-0.16-0.92,0.04-1.81,0.19-2.71
			c0.16-0.99,0.68-4.46,0.81-5.19c0.04-0.25,0.22-0.38,0.48-0.38C133.81,17.2,135.06,17.2,135.36,17.2z"/>
		<path class="st2" d="M121.7,17.21c0.77,0.05,1.52,0.19,2.16,0.7c0.57,0.45,0.83,1.05,0.86,1.73c0.06,1.22-0.22,2.38-1.01,3.36
			c-0.53,0.65-1.26,1-2.07,1.17c-0.8,0.17-1.62,0.16-2.43,0.14c-0.3-0.01-0.42,0.11-0.46,0.39c-0.13,0.9-0.28,1.8-0.43,2.7
			c-0.04,0.24-0.19,0.39-0.43,0.39c-0.7,0.01-1.4,0-2.1,0c-0.21,0-0.29-0.12-0.26-0.32c0.11-0.72,1.41-8.95,1.5-9.65
			c0.07-0.49,0.21-0.63,0.7-0.63C118.4,17.2,121.04,17.16,121.7,17.21z M119.91,22.03c1.33,0.03,1.72-0.39,1.9-1.39
			c0.07-0.4-0.15-1.06-0.69-1.13c-0.46-0.06-0.92-0.02-1.37-0.04c-0.15-0.01-0.18,0.1-0.2,0.24c-0.09,0.55-0.19,1.1-0.28,1.65
			c-0.1,0.67-0.1,0.67,0.57,0.67C119.86,22.03,119.89,22.03,119.91,22.03z"/>
		<path class="st2" d="M145.09,28.08c-1.16-0.03-2.24-0.34-3.22-0.97c-0.25-0.16-0.33-0.31-0.12-0.59c0.38-0.5,0.72-1.04,1.07-1.56
			c0.15-0.22,0.29-0.3,0.53-0.08c0.49,0.46,1.07,0.76,1.74,0.83c0.66,0.08,1.6-0.24,1.7-1.06c0.04-0.31-0.05-0.53-0.3-0.71
			c-0.5-0.36-1.11-0.43-1.66-0.63c-0.54-0.19-1.08-0.38-1.48-0.84c-0.39-0.45-0.48-0.96-0.43-1.53c0.05-0.61,0.16-1.21,0.46-1.75
			c0.7-1.26,1.73-2.02,3.19-2.22c1.21-0.17,2.32,0.14,3.41,0.61c0.36,0.16,0.37,0.25,0.15,0.59c-0.3,0.46-0.61,0.92-0.91,1.37
			c-0.23,0.34-0.3,0.35-0.63,0.12c-0.69-0.49-1.65-0.54-2.28-0.11c-0.53,0.36-0.5,1,0.06,1.31c0.4,0.22,0.85,0.33,1.28,0.47
			c0.51,0.17,1.01,0.37,1.44,0.71c0.54,0.41,0.99,1.24,0.8,2.43C149.29,28.03,145.5,28.1,145.09,28.08z"/>
		<path class="st2" d="M125.03,27.8c-0.28,0-0.4-0.1-0.36-0.37c0.1-0.68,1.42-8.99,1.56-9.82c0.05-0.3,0.22-0.41,0.51-0.41
			c0.63,0.01,1.26,0.01,1.88,0c0.29,0,0.42,0.13,0.38,0.41c-0.18,1.18-0.98,6.25-1.22,7.61c-0.05,0.28,0.08,0.23,0.23,0.23
			c0.87,0,1.73,0,2.6,0c0.38,0,0.42,0.07,0.35,0.44c-0.09,0.49-0.17,0.99-0.24,1.49c-0.04,0.31-0.21,0.42-0.5,0.42
			C129.35,27.79,125.89,27.78,125.03,27.8z"/>
	</g>
	<g>
		<g>
			<path class="st0" d="M27.12,16.42c-0.3-0.34-0.67-0.62-1.11-0.86c-0.26-0.14-0.54-0.26-0.84-0.36c-0.08-0.03-0.15-0.05-0.23-0.07
				c-0.16-0.05-0.32-0.09-0.48-0.12c-0.17-0.04-0.34-0.07-0.51-0.1c-0.62-0.1-1.29-0.15-2.01-0.15h-6.1c-0.15,0-0.29,0.03-0.42,0.1
				c-0.28,0.13-0.49,0.4-0.54,0.73l-1.3,8.22l-1.21,7.66h0l-0.33,2.1c-0.06,0.35,0.22,0.68,0.58,0.68h4.05
				c0.48,0,0.89-0.35,0.96-0.82l0.04-0.21l0.76-4.84l0.05-0.27c0.07-0.47,0.48-0.82,0.96-0.82h0.61c3.92,0,7-1.59,7.9-6.21
				C28.31,19.15,28.11,17.55,27.12,16.42z"/>
		</g>
		<path class="st1" d="M26.01,15.56c0.31-1.95,0-3.27-1.06-4.48C23.8,9.76,21.7,9.2,19.02,9.2h-7.79c-0.55,0-1.01,0.4-1.1,0.94
			L6.89,30.69c-0.06,0.41,0.25,0.77,0.66,0.77h4.81l1.21-7.66l-0.04,0.24c0.09-0.54,0.55-0.94,1.1-0.94h2.28
			c4.49,0,8-1.82,9.03-7.09C25.96,15.86,25.99,15.71,26.01,15.56"/>
	</g>
</g>
</svg>
