<?xml version="1.0" encoding="utf-8"?>
<!-- Generator: Adobe Illustrator 24.2.1, SVG Export Plug-In . SVG Version: 6.00 Build 0)  -->
<svg version="1.1" id="Layer_1" xmlns="http://www.w3.org/2000/svg" xmlns:xlink="http://www.w3.org/1999/xlink" x="0px" y="0px"
	 viewBox="0 0 84.62 43.44" style="enable-background:new 0 0 84.62 43.44;" xml:space="preserve">
<style type="text/css">
	.st0{fill:#D9D9D9;}
	.st1{fill:#989898;}
	.st2{fill:#999999;}
	.st3{fill:#FFFFFF;}
	.st4{fill:#838383;}
	.st5{fill:#848484;}
	.st6{fill:#D4D4D4;}
	.st7{fill:#D1D3D4;}
	.st8{fill:#AFB1B4;}
</style>
<g>
	<path class="st3" d="M47.37,20.06c0-3.03,0-6.06,0-9.09c0-0.46,0-0.46,0.44-0.46c5.33,0,10.66,0,15.99-0.01
		c0.3,0,0.42,0.06,0.41,0.39c-0.02,1.1-0.02,2.21,0,3.31c0.01,0.34-0.11,0.39-0.41,0.39c-3.25-0.01-6.5,0-9.75-0.01
		c-0.3,0-0.4,0.06-0.39,0.38c0.03,0.78,0.02,1.56,0,2.33c-0.01,0.27,0.07,0.35,0.35,0.35c3.01-0.01,6.01,0,9.02-0.02
		c0.35,0,0.42,0.1,0.41,0.42c-0.02,1.03-0.02,2.07,0,3.1c0.01,0.3-0.06,0.41-0.39,0.41c-3-0.01-5.99,0-8.99-0.02
		c-0.31,0-0.41,0.06-0.4,0.39c0.02,1.01,0.02,2.02,0,3.03c0,0.28,0.08,0.34,0.35,0.34c3.37-0.01,6.73,0,10.1-0.01
		c0.29,0,0.4,0.05,0.39,0.38c-0.02,1.22-0.02,2.44,0,3.66c0,0.25-0.07,0.31-0.31,0.31c-5.5-0.01-11.01-0.01-16.51,0
		c-0.28,0-0.31-0.11-0.31-0.34C47.38,26.21,47.37,23.14,47.37,20.06z"/>
	<path class="st3" d="M11.94,23.13c1.14-0.07,2.03-0.12,2.92-0.18c0.2-0.01,0.27,0.03,0.31,0.24c0.18,1.09,0.61,2.04,1.64,2.56
		c1.1,0.56,2.26,0.59,3.4,0.15c0.93-0.36,1.43-1.25,1.21-2.06c-0.17-0.61-0.6-1-1.16-1.26c-0.91-0.42-1.89-0.61-2.86-0.83
		c-1.64-0.36-3.27-0.8-4.75-1.63c-1.34-0.75-2.36-1.78-2.64-3.35c-0.39-2.17,0.41-3.86,2.17-5.12c1.07-0.76,2.3-1.14,3.59-1.3
		c2-0.26,4-0.28,5.99,0.12c1.4,0.28,2.69,0.8,3.68,1.88c0.87,0.95,1.27,2.11,1.47,3.36c0.03,0.17-0.05,0.19-0.19,0.19
		c-1.26,0.07-2.52,0.14-3.79,0.21c-0.57,0.03-1.14,0.05-1.7,0.09c-0.17,0.01-0.26-0.01-0.29-0.19c-0.38-1.89-1.8-2.36-3.45-2.24
		c-0.44,0.03-0.87,0.14-1.23,0.43c-0.8,0.64-0.7,1.6,0.23,2.04c0.54,0.26,1.12,0.37,1.7,0.49c1.84,0.38,3.67,0.77,5.43,1.46
		c1,0.39,1.94,0.91,2.66,1.72c1.57,1.76,1.75,4.38,0.47,6.5c-1.02,1.69-2.57,2.67-4.44,3.11c-2.81,0.66-5.65,0.61-8.44-0.14
		c-2.57-0.69-3.96-2.52-4.57-5.02c-0.08-0.34-0.3-0.78-0.09-1.03c0.15-0.18,0.63-0.1,0.96-0.12C10.84,23.19,11.51,23.15,11.94,23.13
		z"/>
	<path class="st3" d="M28.76,20.05c0-3.05,0.01-6.1-0.01-9.16c0-0.33,0.1-0.4,0.41-0.4c3.41,0.01,6.82,0,10.24,0.01
		c1.19,0,2.36,0.15,3.47,0.61c1.97,0.84,2.94,2.4,3.13,4.48c0.11,1.2,0.02,2.39-0.49,3.51c-0.79,1.76-2.23,2.7-4.05,3.13
		c-0.86,0.21-1.74,0.3-2.62,0.3c-1.14,0-2.27,0.01-3.41-0.01c-0.27,0-0.33,0.08-0.33,0.33c0.01,2.14,0,4.27,0.01,6.41
		c0,0.28-0.05,0.37-0.35,0.37c-1.88-0.02-3.76-0.01-5.64,0c-0.29,0-0.36-0.07-0.36-0.36C28.77,26.2,28.76,23.12,28.76,20.05z
		 M36.52,14.41c-0.38,0-0.77,0.01-1.15,0c-0.19-0.01-0.27,0.05-0.27,0.25c0.01,1.25,0.01,2.51,0,3.76c0,0.18,0.06,0.24,0.24,0.24
		c0.51-0.01,1.02,0.01,1.53-0.01c0.57-0.01,1.14-0.06,1.68-0.25c0.86-0.3,1.37-1.03,1.34-1.9c-0.03-0.95-0.58-1.66-1.48-1.91
		C37.79,14.41,37.16,14.41,36.52,14.41z"/>
	<path class="st3" d="M68.5,25.17c1.36-1.63,2.65-3.17,3.95-4.72c0.1,0.09,0.07,0.18,0.07,0.27c0,2.87,0,5.73,0.01,8.6
		c0,0.27-0.07,0.32-0.33,0.32c-1.89-0.01-3.78-0.01-5.67,0c-0.26,0-0.33-0.06-0.32-0.32c0.01-2.48,0.01-4.97,0-7.45
		c0-0.26,0.04-0.37,0.33-0.36c0.54,0.03,1.09,0.02,1.64,0c0.29-0.01,0.34,0.1,0.34,0.36C68.49,22.93,68.5,23.99,68.5,25.17z"/>
	<path class="st3" d="M72.45,18.61c-0.66-0.82-1.31-1.64-1.96-2.45c-0.64-0.8-1.28-1.6-1.99-2.49c0,0.52,0,0.93,0,1.34
		c0,0.73-0.01,1.46,0,2.19c0,0.23-0.07,0.3-0.29,0.29c-0.58-0.01-1.16-0.01-1.74,0c-0.22,0-0.27-0.07-0.27-0.28
		c0.01-2.16,0.01-4.31,0-6.47c0-0.2,0.07-0.26,0.26-0.26c1.94,0.01,3.87,0,5.81,0c0.17,0,0.26,0.03,0.26,0.23
		c-0.01,2.61-0.01,5.22-0.01,7.83C72.51,18.56,72.5,18.57,72.45,18.61z"/>
</g>
</svg>
