<?xml version="1.0" encoding="utf-8"?>
<!-- Generator: Adobe Illustrator 24.2.1, SVG Export Plug-In . SVG Version: 6.00 Build 0)  -->
<svg version="1.1" id="Layer_1" xmlns="http://www.w3.org/2000/svg" xmlns:xlink="http://www.w3.org/1999/xlink" x="0px" y="0px"
	 viewBox="0 0 89.21 43.44" style="enable-background:new 0 0 89.21 43.44;" xml:space="preserve">
<style type="text/css">
	.st0{fill:#D9D9D9;}
	.st1{fill:#989898;}
	.st2{fill:#999999;}
	.st3{fill:#FFFFFF;}
	.st4{fill:#838383;}
	.st5{fill:#848484;}
	.st6{fill:#D4D4D4;}
	.st7{fill:#D1D3D4;}
	.st8{fill:#AFB1B4;}
</style>
<g>
	<path class="st3" d="M80.16,33.5c-1.88,0-3.76,0-5.67,0c-0.21-1-0.43-1.97-0.61-2.96c-0.07-0.41-0.2-0.57-0.66-0.56
		c-2.27,0.03-4.55,0.02-6.82,0c-0.34,0-0.48,0.11-0.59,0.42c-0.31,0.94-0.66,1.86-1.01,2.79c-0.05,0.13-0.21,0.3-0.31,0.3
		c-2.05,0.02-4.1,0.01-6.21,0.01c0.38-0.93,0.75-1.81,1.12-2.69c2.64-6.3,5.29-12.61,7.93-18.91c0.57-1.37,1.43-1.94,2.91-1.94
		c1.65,0,3.29,0,4.98,0c0.16,0.77,0.33,1.53,0.49,2.28c1.3,6.23,2.6,12.46,3.9,18.69c0.17,0.8,0.36,1.59,0.55,2.38
		C80.16,33.39,80.16,33.44,80.16,33.5z M72.74,25.14c-0.6-2.9-1.2-5.75-1.8-8.61c-0.02,0-0.05-0.01-0.07-0.01
		c-1.04,2.87-2.08,5.73-3.13,8.63C69.44,25.14,71.07,25.14,72.74,25.14z"/>
	<path class="st3" d="M55.47,9.55c0.75,0.14,1.5,0.25,2.24,0.42c0.68,0.16,1.34,0.37,2.06,0.58c-0.36,1.69-0.72,3.35-1.06,4.96
		c-0.95-0.28-1.85-0.6-2.79-0.8c-1.27-0.28-2.58-0.39-3.85-0.03c-0.52,0.14-1.04,0.42-1.45,0.77c-0.7,0.6-0.71,1.46-0.04,2.09
		c0.46,0.43,1.01,0.79,1.55,1.12c1.24,0.75,2.54,1.39,3.75,2.19c1.42,0.94,2.46,2.23,2.67,3.97c0.38,3.09-0.76,5.52-3.35,7.23
		c-1.63,1.08-3.47,1.56-5.4,1.74c-2.68,0.25-5.31-0.05-7.88-0.89c-0.17-0.06-0.34-0.13-0.51-0.2c-0.05-0.02-0.09-0.06-0.17-0.1
		c0.36-1.7,0.72-3.39,1.1-5.14c0.44,0.19,0.85,0.38,1.27,0.55c2,0.81,4.07,1.18,6.22,0.77c0.56-0.1,1.13-0.35,1.6-0.67
		c1.03-0.69,1.12-1.98,0.19-2.79c-0.61-0.53-1.35-0.92-2.05-1.35c-1.09-0.67-2.25-1.23-3.29-1.98c-1.33-0.95-2.29-2.23-2.47-3.92
		c-0.27-2.53,0.67-4.59,2.61-6.19c1.69-1.39,3.7-2.01,5.84-2.27c0.12-0.01,0.23-0.06,0.35-0.08C53.57,9.55,54.52,9.55,55.47,9.55z"
		/>
	<path class="st3" d="M33.42,9.99c-0.32,0.77-0.62,1.5-0.93,2.23c-2.92,6.96-5.84,13.92-8.75,20.88c-0.14,0.33-0.31,0.42-0.64,0.42
		c-1.84-0.02-3.68-0.02-5.52,0c-0.39,0.01-0.52-0.13-0.61-0.48c-1.56-6.08-3.15-12.16-4.69-18.25c-0.28-1.12-0.85-1.88-1.91-2.35
		c-1.7-0.75-3.47-1.28-5.28-1.71c-0.08-0.02-0.16-0.04-0.23-0.06c0.01-0.71,0.01-0.71,0.68-0.71c3.22,0,6.45,0,9.67,0
		c1.53,0,2.63,0.89,2.92,2.4c0.82,4.28,1.62,8.57,2.43,12.86c0.04,0.19,0.08,0.37,0.13,0.64c0.08-0.16,0.14-0.25,0.18-0.34
		c2-5.06,4-10.13,6-15.19c0.11-0.28,0.24-0.37,0.54-0.37c1.87,0.01,3.74,0.01,5.61,0.01C33.13,9.97,33.25,9.98,33.42,9.99z"/>
	<path class="st3" d="M30.98,33.51c1.68-7.87,3.36-15.68,5.03-23.51c2.04,0,4.05,0,6.11,0c-0.25,1.19-0.5,2.36-0.75,3.53
		c-1.38,6.47-2.77,12.94-4.14,19.41c-0.1,0.45-0.25,0.59-0.72,0.58c-1.67-0.03-3.35-0.01-5.02-0.01
		C31.33,33.51,31.18,33.51,30.98,33.51z"/>
</g>
</svg>
